<?xml version="1.0" encoding="utf-8"?>
<!-- Generator: Adobe Illustrator 19.2.1, SVG Export Plug-In . SVG Version: 6.00 Build 0)  -->
<svg version="1.1" id="Layer_1" xmlns="http://www.w3.org/2000/svg" xmlns:xlink="http://www.w3.org/1999/xlink" x="0px" y="0px"
	 viewBox="0 0 294.8 257.9" style="enable-background:new 0 0 294.8 257.9;" xml:space="preserve">
<style type="text/css">
	.st0{fill:#444444;}
	.st1{fill:#0397E5;}
	.st2{fill:#FFBA00;}
</style>
<title>new-medal</title>
<g>
	<path class="st0" d="M167.6,130.1h-49c-1.7,0-3.2-0.8-4.2-2.1l-49-70.4c-1.6-2.3-1-5.5,1.4-7c0.8-0.6,1.8-0.9,2.8-0.9h48.8
		c1.7,0,3.2,0.8,4.2,2.1l49,70.4c1.6,2.3,1,5.5-1.4,7C169.5,129.7,168.6,130,167.6,130.1z"/>
	<path class="st1" d="M233.9,38.1c1.6-2.3,1-5.5-1.4-7c-0.8-0.6-1.8-0.9-2.8-0.9h-48.9c-1.7,0-3.2,0.8-4.2,2.1l-62.2,89.8
		c-1.6,2.3-1,5.5,1.4,7c0.8,0.6,1.8,0.9,2.8,0.9h49c1.7,0,3.2-0.8,4.2-2.1L234,38.1"/>
	<path class="st2" d="M98.5,207.7v-40.6c0-3.6,1.9-7,5.1-8.8l35.3-20.3c3.1-1.8,7-1.8,10.2,0l35.3,20.3c3.2,1.8,5.1,5.2,5.1,8.8
		v40.6c0,3.6-1.9,7-5.1,8.8l-35.3,20.3c-3.1,1.8-7,1.8-10.2,0l-35.3-20.3C100.4,214.7,98.5,211.3,98.5,207.7z"/>
</g>
</svg>
