<svg id="Layer_1" data-name="Layer 1" xmlns="http://www.w3.org/2000/svg" viewBox="0 0 416.14 387.19"><defs><style>.cls-1{fill:#05a1e5;}.cls-2{fill:#0397e5;}</style></defs><title>basketball-corner</title><path class="cls-1" d="M628.12,1194.2l8.14,8.15h14.53V1175Q639,1184,628.12,1194.2Z" transform="translate(-234.65 -815.16)"/><path class="cls-1" d="M598.39,1194.2L546.24,1142h0l-60.32,60.36H591.05c2.4-2.75,4.84-5.47,7.34-8.15h0Z" transform="translate(-234.65 -815.16)"/><path class="cls-1" d="M238.18,1140.2a300.83,300.83,0,0,0,226.11-80.25L318.59,914.1a310,310,0,0,0-76.2,143.8,313.29,313.29,0,0,0-7.44,82.6q0.23,5.17.62,10.34-0.39-5.17-.62-10.34A10.31,10.31,0,0,1,238.18,1140.2Z" transform="translate(-234.65 -815.16)"/><path class="cls-1" d="M479.15,1045.09a301.61,301.61,0,0,0,80.17-226.41,10.31,10.31,0,0,1,.29-3.24,310.54,310.54,0,0,0-226.17,83.79l145.71,145.86h0Z" transform="translate(-234.65 -815.16)"/><path class="cls-1" d="M479.15,1074.84h0a321.84,321.84,0,0,1-220.21,87.11q-11.08,0-22.22-.76a1,1,0,0,1-.2,0,313.1,313.1,0,0,0,7.31,41.19H456.2l75.18-75.24Z" transform="translate(-234.65 -815.16)"/><path class="cls-1" d="M236.52,1161.16q-0.57-5.15-1-10.32Q236,1156,236.52,1161.16Z" transform="translate(-234.65 -815.16)"/><path class="cls-1" d="M561.1,1127.11l52.15,52.2h0a321.88,321.88,0,0,1,37.54-30.25V1037.35l-89.69,89.76h0Z" transform="translate(-234.65 -815.16)"/><path class="cls-1" d="M494,1060h0l52.23,52.27h0l104.55-104.63V833.19A311.46,311.46,0,0,0,580.28,817a1.08,1.08,0,0,1,0,.21A322.57,322.57,0,0,1,494,1060Z" transform="translate(-234.65 -815.16)"/><path class="cls-2" d="M628.12,1194.2Q639,1184,650.79,1175v-26a321.88,321.88,0,0,0-37.54,30.25Z" transform="translate(-234.65 -815.16)"/><path class="cls-2" d="M598.39,1194.2h0c-2.5,2.67-4.94,5.4-7.34,8.15h15.49l-8.15-8.15h0Z" transform="translate(-234.65 -815.16)"/><path class="cls-2" d="M559.32,818.68a301.61,301.61,0,0,1-80.17,226.41h0L494,1060h0a322.57,322.57,0,0,0,86.3-242.73,1.08,1.08,0,0,0,0-.21h0q-10.3-1.14-20.66-1.58h0A10.31,10.31,0,0,0,559.32,818.68Z" transform="translate(-234.65 -815.16)"/><path class="cls-2" d="M258.94,1161.95a321.84,321.84,0,0,0,220.21-87.11l-14.86-14.89h0a300.83,300.83,0,0,1-226.11,80.25,10.31,10.31,0,0,0-3.24.29q0.23,5.17.62,10.34t1,10.32a1,1,0,0,0,.2,0Q247.86,1161.95,258.94,1161.95Z" transform="translate(-234.65 -815.16)"/><polygon class="cls-2" points="311.59 326.82 296.73 311.95 296.73 311.95 221.55 387.19 251.27 387.19 311.59 326.82 311.59 326.82"/><polygon class="cls-2" points="311.59 297.08 311.59 297.08 326.45 311.95 416.14 222.19 416.14 192.45 311.59 297.08 311.59 297.08"/><path class="cls-2" d="M613.25,1179.31h0l-52.15-52.2h0l-14.86-14.87h0L494,1060h0l-14.86-14.87h0L333.45,899.23h0q-1.91,1.78-3.8,3.6t-3.74,3.69q-3.74,3.74-7.32,7.58l145.71,145.85h0l14.86,14.89h0l52.23,52.27h0L546.24,1142h0l52.15,52.22h0l8.15,8.15h29.72l-8.14-8.15Z" transform="translate(-234.65 -815.16)"/></svg>