<svg id="Layer_1" data-name="Layer 1" xmlns="http://www.w3.org/2000/svg" viewBox="0 0 409.6 409.6"><defs><style>.cls-1{fill:none;}.cls-2{fill:#a864cc;}.cls-3{fill:#ff7b88;}.cls-4{fill:#fcbc85;}.cls-5{fill:#fdcc9b;}.cls-6{fill:#464655;}.cls-7{fill:#f7945e;}.cls-8{fill:#51362a;}.cls-9{fill:#d76473;}.cls-10{fill:#ffa055;}.cls-11{fill:#b4ebbe;}.cls-12{fill:#ebc89b;}.cls-13{fill:#401900;}.cls-14{fill:#3f1f0d;}.cls-15{fill:#3d291f;}.cls-16{fill:#9bdcb4;}.cls-17{fill:#3b2519;}.cls-18{fill:#fff;}.cls-19{fill:#f7941e;}.cls-20{fill:#f36c21;}.cls-21{fill:#330c00;}.cls-22{fill:#00b497;}.cls-23{fill:#684b37;}.cls-24{fill:#f9aa8d;}.cls-25{fill:#8fd6e7;}.cls-26{fill:#f6b1cf;}.cls-27{fill:#f283b4;}.cls-28{fill:#3abdaa;}</style></defs><title>family-pack</title><path class="cls-1" d="M683.29,280a203.84,203.84,0,0,1-36,115.95l0,0.33A203.84,203.84,0,0,0,683.54,280c0-113.11-91.69-204.8-204.8-204.8h-0.12C591.67,75.27,683.29,166.93,683.29,280Z" transform="translate(-273.94 -75.2)"/><path class="cls-1" d="M478.62,484.8h0.12l2.27,0h0Z" transform="translate(-273.94 -75.2)"/><path class="cls-2" d="M317,361.15l31.7-7-1.25-1.88-0.64-1L361.39,344V329.33l-18.18-7.27a29.25,29.25,0,0,1-18.39-27.16V278.13a14.62,14.62,0,0,1-7.82-27l-3.59-35.94a29.22,29.22,0,0,1,11.65-26.38c0.92-8.14,4.7-15.39,12.57-21,20.42-14.62,148.11-21.33,148.11-21.33h0L476.67,190a33.63,33.63,0,0,1-1.08,3.2,30.62,30.62,0,0,1-6.65,10.4,30.61,30.61,0,0,0,6.65-10.4c0.49,0.57,1,1.17,1.4,1.77,13.43-31.15,39.57-51.05,73.52-54.14h0c2.64-.24,5.29-0.35,7.94-0.36h0.19c2.65,0,5.3.12,7.94,0.36h0c42.18,3.84,72.33,33.61,81,78.69,7.8,40.65,6,118.06,6,118.06l-43.89,7.31,1.46-26.23,5.79-104.28h0l-5.79,104.28L580.59,334V343a49,49,0,0,1,8.8,10l14.1,7.05,12,6-12-6,31.63,15.82a22,22,0,0,1,12.09,18.26l0.11,1.82a203.84,203.84,0,0,0,36-115.95c0-113.07-91.63-204.73-204.68-204.8S273.94,166.93,273.94,280a203.88,203.88,0,0,0,23.7,95.69A29.23,29.23,0,0,1,317,361.15Z" transform="translate(-273.94 -75.2)"/><polygon class="cls-2" points="211.79 71.28 211.79 71.27 211.79 71.28 211.79 71.28"/><path class="cls-2" d="M620.77,412.08a25.77,25.77,0,0,1,3.88-5l20.52-20.52h0l-20.52,20.51A25.8,25.8,0,0,0,620.77,412.08Z" transform="translate(-273.94 -75.2)"/><path class="cls-2" d="M613,411.16h0Z" transform="translate(-273.94 -75.2)"/><path class="cls-2" d="M619.49,401.94L641,380.41l-21.54,21.54a33,33,0,0,0-6.21,8.64A32.92,32.92,0,0,1,619.49,401.94Z" transform="translate(-273.94 -75.2)"/><path class="cls-2" d="M434.53,270.82a7.28,7.28,0,0,1-5.39-2.38h0a7.31,7.31,0,0,0,12.7-4.94A7.32,7.32,0,0,1,434.53,270.82Z" transform="translate(-273.94 -75.2)"/><path class="cls-2" d="M463.56,337.63s-0.22-9.2-.18-22.93a29.2,29.2,0,0,1-10.66,7.35l-18.18,7.27v0.44c12.24,4.46,18.23,12.06,18.23,12.06,7.59,3.24,11.93,9.36,14.12,16.63L479,361.15a29.2,29.2,0,0,1,10.38,4.57,55.88,55.88,0,0,1,13.91-21.47Z" transform="translate(-273.94 -75.2)"/><path class="cls-2" d="M479.48,483.73l-2,1.06h1.11l2.39,0Q480.22,484.27,479.48,483.73Z" transform="translate(-273.94 -75.2)"/><path class="cls-2" d="M572,296.36a7.27,7.27,0,0,1,3.52-.79,7.28,7.28,0,0,0-3.52.79,30.61,30.61,0,0,1-13.35,2.77A30.63,30.63,0,0,0,572,296.36Z" transform="translate(-273.94 -75.2)"/><polygon class="cls-2" points="299.08 262.56 299.08 262.56 306.65 258.77 299.08 262.56"/><path class="cls-2" d="M506,318.61L507.22,341c6.4-4.73,14.43-8.1,24.47-9.49Z" transform="translate(-273.94 -75.2)"/><path class="cls-3" d="M647.2,394.12a22,22,0,0,0-12.09-18.26L603.49,360l12,6a58.5,58.5,0,0,1-13.79,25.81,187,187,0,0,1,.91,19.14c0,2.37-.09,4.66-0.26,6.9a170.27,170.27,0,0,1-1.37,26.48q4.55-3.39,8.9-7V425.22A32.82,32.82,0,0,1,613,411.16h0c0.09-.19.19-0.38,0.29-0.57a33,33,0,0,1,6.21-8.64L641,380.41a21.69,21.69,0,0,1,4.15,6.19h0l-20.52,20.52a25.77,25.77,0,0,0-3.88,5,25.46,25.46,0,0,0-3.62,13.14v5.72a205.9,205.9,0,0,0,30.18-34.66l0-.33Z" transform="translate(-273.94 -75.2)"/><path class="cls-4" d="M573,337.76a46.25,46.25,0,0,1,7.56,5.27V334Z" transform="translate(-273.94 -75.2)"/><path class="cls-4" d="M589.38,353c7.46,11.12,10.87,25.1,12.29,38.85A58.5,58.5,0,0,0,615.46,366l-12-6Z" transform="translate(-273.94 -75.2)"/><path class="cls-5" d="M611.11,318.71l5.79-104.28c-9.89,4.16-26.14,9.68-52.76,16.16-6.14,1.5-12.84,3-20.13,4.64l7.31-14.63s-26.25,12.53-49.54,22.54l4.2,75.48,25.71,12.86a79,79,0,0,1,10.91-.73c12.54,0,22.51,2.6,30.41,7l7.57-3.78ZM587.9,257.17a7.31,7.31,0,0,1,14.63,0v7.32a7.31,7.31,0,0,1-14.63,0v-7.32Zm-52.43,42.42a7.31,7.31,0,0,1,9.82-3.23,23.6,23.6,0,0,0,4.57,1.69,34.88,34.88,0,0,0,8.78,1.08A30.61,30.61,0,0,0,572,296.36a7.31,7.31,0,1,1,6.59,13.06,47,47,0,0,1-39.87,0A7.32,7.32,0,0,1,535.47,299.59Zm-13.4-27.79a7.31,7.31,0,0,1-7.32-7.31v-7.32a7.31,7.31,0,0,1,14.63,0v7.32A7.31,7.31,0,0,1,522.07,271.8Z" transform="translate(-273.94 -75.2)"/><path class="cls-6" d="M529.39,257.17a7.31,7.31,0,0,0-14.63,0v7.32a7.31,7.31,0,0,0,14.63,0v-7.32Z" transform="translate(-273.94 -75.2)"/><path class="cls-6" d="M595.22,271.8a7.32,7.32,0,0,0,7.32-7.31v-7.32a7.31,7.31,0,0,0-14.63,0v7.32A7.31,7.31,0,0,0,595.22,271.8Z" transform="translate(-273.94 -75.2)"/><path class="cls-7" d="M538.71,309.42a47,47,0,0,0,39.87,0A7.31,7.31,0,1,0,572,296.36a30.63,30.63,0,0,1-13.35,2.77,34.88,34.88,0,0,1-8.78-1.08,23.6,23.6,0,0,1-4.57-1.69A7.31,7.31,0,1,0,538.71,309.42Z" transform="translate(-273.94 -75.2)"/><path class="cls-8" d="M506.08,318.51L501.88,243c23.29-10,49.54-22.54,49.54-22.54l-7.31,14.63c7.3-1.59,14-3.14,20.13-4.64,26.62-6.48,42.87-12,52.76-16.16h0l-5.79,104.28-1.46,26.23,43.89-7.31s1.83-77.41-6-118.06c-8.65-45.07-38.8-74.85-81-78.69h0c-2.64-.24-5.29-0.35-7.94-0.36h-0.19c-2.65,0-5.3.12-7.94,0.36h0c-33.95,3.09-60.09,23-73.52,54.14a29.08,29.08,0,0,1,5.53,20.19L479,251.05a14.62,14.62,0,0,1-7.82,27v16.76a29.24,29.24,0,0,1-7.73,19.81c0,13.73.18,22.93,0.18,22.93l39.71,6.62a46.14,46.14,0,0,1,4-3.28Z" transform="translate(-273.94 -75.2)"/><path class="cls-9" d="M617.16,425.22a25.46,25.46,0,0,1,3.62-13.14,25.8,25.8,0,0,1,3.88-5l20.52-20.51h0a21.69,21.69,0,0,0-4.15-6.19l-21.53,21.54a32.92,32.92,0,0,0-6.21,8.64c-0.1.19-.2,0.38-0.29,0.57h0a32.82,32.82,0,0,0-3.13,14.05v12.11q3.73-3.11,7.31-6.4v-5.72Z" transform="translate(-273.94 -75.2)"/><polygon class="cls-10" points="211.79 71.28 211.79 71.28 211.79 71.28 211.79 71.28"/><polygon class="cls-10" points="74.71 278.91 74.71 278.9 73.46 277.03 74.71 278.91"/><path class="cls-10" d="M324.82,193s0-.06,0-0.09h0S324.82,193,324.82,193Z" transform="translate(-273.94 -75.2)"/><path class="cls-10" d="M429.15,268.44a7.28,7.28,0,0,1-1.93-4.93,7.28,7.28,0,0,0,1.93,4.94h0Z" transform="translate(-273.94 -75.2)"/><path class="cls-10" d="M413.41,294.68a7.25,7.25,0,0,1,1.42-.1A7.25,7.25,0,0,0,413.41,294.68Z" transform="translate(-273.94 -75.2)"/><path class="cls-10" d="M361.39,270.82a7.32,7.32,0,0,0,7.32-7.32A7.32,7.32,0,0,1,361.39,270.82Z" transform="translate(-273.94 -75.2)"/><path class="cls-10" d="M398,312.87A44.49,44.49,0,0,1,378,308.43,44.48,44.48,0,0,0,398,312.87Z" transform="translate(-273.94 -75.2)"/><path class="cls-10" d="M381.1,294.59a7.32,7.32,0,0,0-5.95,3.37A7.32,7.32,0,0,1,381.1,294.59Z" transform="translate(-273.94 -75.2)"/><path class="cls-10" d="M411.31,295.37A30.6,30.6,0,0,1,398,298.15,30.6,30.6,0,0,0,411.31,295.37Z" transform="translate(-273.94 -75.2)"/><path class="cls-10" d="M313.41,215.21a29.2,29.2,0,0,1,11.64-26.38h0a29.22,29.22,0,0,0-11.65,26.38L317,251.16h0Z" transform="translate(-273.94 -75.2)"/><path class="cls-10" d="M431.76,172.64a204.69,204.69,0,0,1-26,3.32,205.59,205.59,0,0,0,26-3.31h0Z" transform="translate(-273.94 -75.2)"/><path class="cls-10" d="M485.73,146.48h0c0,0.09-20.87,38.4-80.22,41.14h0C464.86,184.88,485.68,146.57,485.73,146.48Z" transform="translate(-273.94 -75.2)"/><path class="cls-11" d="M457.83,416.95C454,431.28,445.57,444.44,427,448.28v8.52l0.2,0,1.27,0.22,1,0.21,1.38,0.28,0.75,0.17a86,86,0,0,1,28.49,12.12V417.4A10.15,10.15,0,0,1,457.83,416.95Z" transform="translate(-273.94 -75.2)"/><path class="cls-11" d="M403.49,448.29h0q-1-.2-1.88-0.43v9.29l1.88-.34h0v-8.5Z" transform="translate(-273.94 -75.2)"/><path class="cls-11" d="M469.94,465.66s19.52,2.46,15.52-13.82c-2.53-10.31-3.09-23.8-2.74-37-0.05-1.27-.09-2.55-0.09-3.85a176,176,0,0,1,1.44-23.63l-9.14,9.14a25.85,25.85,0,0,0-3.13,3.79,14.76,14.76,0,0,1,.57,4.07,13.68,13.68,0,0,1-4.94,10.75v60.81c2.88,3,4.63,6,4.89,8.78q2.58,0.08,5.17.09l2-1.06C473.7,479.52,469.94,473.7,469.94,465.66Z" transform="translate(-273.94 -75.2)"/><path class="cls-11" d="M466.88,358.46c3.27,10.8,1.81,24.11-.7,34.27a11.3,11.3,0,0,1,1.41,1q1-1.24,2.18-2.4h0l16.8-16.8a84,84,0,0,1,2.78-8.8A29.2,29.2,0,0,0,479,361.15Z" transform="translate(-273.94 -75.2)"/><polygon class="cls-11" points="193.51 400.71 193.51 400.71 193.51 339.91 193.51 339.91 193.51 400.71"/><path class="cls-11" d="M474.94,396.49a25.84,25.84,0,0,0-3.12,3.78h0a25.85,25.85,0,0,1,3.13-3.79l9.14-9.14h0Z" transform="translate(-273.94 -75.2)"/><polygon class="cls-11" points="195.84 316.12 195.84 316.12 212.63 299.32 212.63 299.32 195.84 316.12"/><path class="cls-11" d="M394.3,445.3c-12.3-5.7-18.51-16.64-21.63-28.35a10.14,10.14,0,0,1-3.09.49c-6.34,0-11.47-5.86-11.47-13.09a13.26,13.26,0,0,1,6.9-12c-0.48-4.07-.87-8.78-1.14-14,0-.49,0-1-0.07-1.46L348.65,354.1h0l-31.7,7a29.23,29.23,0,0,0-19.31,14.54,205.33,205.33,0,0,0,30.83,43.44V414.6a26,26,0,0,0-.28-3.8A25.4,25.4,0,0,0,321,396.49L298.58,374.1a29.28,29.28,0,0,1,4.7-5.61l0,0,22.85,22.85a32.72,32.72,0,0,1,9.64,23.28h0v12A205.37,205.37,0,0,0,385,462.12a90.84,90.84,0,0,1,9.33-3.22V445.3Z" transform="translate(-273.94 -75.2)"/><path class="cls-11" d="M326.15,391.32a32.72,32.72,0,0,1,9.64,23.28h0a32.72,32.72,0,0,0-9.64-23.28L303.3,368.46l0,0h0Z" transform="translate(-273.94 -75.2)"/><path class="cls-12" d="M434.53,329.77v-0.44l-0.59.24Z" transform="translate(-273.94 -75.2)"/><path class="cls-4" d="M379.92,336.74l-18.53-7.41V344l6.87,5.5A33.92,33.92,0,0,1,379.92,336.74Z" transform="translate(-273.94 -75.2)"/><path class="cls-13" d="M448.16,212.3h8.31a14.63,14.63,0,0,1,14.63,14.63v21.94a14.54,14.54,0,0,1,7.82,2.28l3.59-35.94A29.08,29.08,0,0,0,477,195c-0.45-.61-0.91-1.2-1.4-1.77a30.61,30.61,0,0,1-6.65,10.4A28.73,28.73,0,0,1,448.16,212.3Z" transform="translate(-273.94 -75.2)"/><path class="cls-13" d="M325.25,196.89v0c0-.13,0-0.27-0.07-0.4h0v0c-0.09-.48-0.17-1-0.22-1.46,0-.1,0-0.2,0-0.3-0.05-.57-0.08-1.14-0.09-1.73,0,0,0-.06,0-0.09h0a36.45,36.45,0,0,1,.23-4.11,29.2,29.2,0,0,0-11.64,26.38L317,251.15a14.54,14.54,0,0,1,7.82-2.28V226.93a14.63,14.63,0,0,1,14.63-14.63h4.73A19.3,19.3,0,0,1,325.25,196.89Z" transform="translate(-273.94 -75.2)"/><path class="cls-5" d="M400.64,328.43c13.94-3.21,25-1.77,33.3,1.13l0.59-.24,18.18-7.27a29.26,29.26,0,0,0,18.39-27.16V278.13a14.63,14.63,0,0,0,0-29.26V226.93a14.63,14.63,0,0,0-14.63-14.63h-117a14.63,14.63,0,0,0-14.63,14.63v21.94a14.54,14.54,0,0,0-7.82,2.28h0a14.62,14.62,0,0,0,7.82,27v16.76a29.25,29.25,0,0,0,18.39,27.16l18.18,7.27,18.53,7.41C385.09,333.3,391.85,330.46,400.64,328.43Zm26.58-72.24h0a7.31,7.31,0,0,1,6.56-7.28,7.41,7.41,0,0,1,1.5,0,7.32,7.32,0,0,1,6.57,7.28h0v7.31a7.31,7.31,0,0,1-14.63,0v-7.31Zm-52.43,42.42a7.4,7.4,0,0,1,.37-0.65,7.31,7.31,0,0,1,9.45-2.58,33.5,33.5,0,0,0,26.7,0,7.33,7.33,0,0,1,2.1-.69,7.32,7.32,0,0,1,4.49,13.75,47,47,0,0,1-39.87,0A7.31,7.31,0,0,1,374.79,298.61ZM354.08,263.5v-7.31a7.31,7.31,0,1,1,14.63,0v7.31A7.31,7.31,0,1,1,354.08,263.5Z" transform="translate(-273.94 -75.2)"/><path class="cls-6" d="M368.71,263.5v-7.31a7.31,7.31,0,1,0-14.63,0v7.31A7.31,7.31,0,1,0,368.71,263.5Z" transform="translate(-273.94 -75.2)"/><path class="cls-6" d="M434.53,270.82a7.32,7.32,0,0,0,7.32-7.31v-7.31h0a7.32,7.32,0,0,0-6.57-7.28,7.41,7.41,0,0,0-1.5,0,7.31,7.31,0,0,0-6.56,7.28h0v7.31A7.33,7.33,0,0,0,434.53,270.82Z" transform="translate(-273.94 -75.2)"/><path class="cls-14" d="M405.51,187.62h0a204,204,0,0,0,26.25-15,205.59,205.59,0,0,1-26,3.31c-49.49,3.28-77,4.57-80.49,20.93a19.3,19.3,0,0,0,18.93,15.41h104a28.73,28.73,0,0,0,20.78-8.65,30.62,30.62,0,0,0,6.65-10.4,33.63,33.63,0,0,0,1.08-3.2l9.06-43.56h0C485.68,146.57,464.86,184.88,405.51,187.62Z" transform="translate(-273.94 -75.2)"/><path class="cls-6" d="M325.24,196.93c0-.13,0-0.26-0.07-0.39h0C325.19,196.66,325.21,196.8,325.24,196.93Z" transform="translate(-273.94 -75.2)"/><path class="cls-15" d="M324.82,192.94h0s0,0.06,0,.09c0,0.58,0,1.16.09,1.73,0,0.1,0,.2,0,0.3,0.05,0.5.13,1,.22,1.46v0c0,0.13,0,.26.07,0.39v0c3.51-16.36,31-17.65,80.49-20.93a204.69,204.69,0,0,0,26-3.32h0a204,204,0,0,1-26.25,15h0c59.36-2.74,80.17-41.05,80.22-41.14h0S358,153.18,337.62,167.8c-7.87,5.64-11.65,12.88-12.57,21h0A36.45,36.45,0,0,0,324.82,192.94Z" transform="translate(-273.94 -75.2)"/><path class="cls-16" d="M394.3,445.3v13.59c2.4-.69,4.85-1.27,7.32-1.75v-9.29A41.14,41.14,0,0,1,394.3,445.3Z" transform="translate(-273.94 -75.2)"/><path class="cls-16" d="M368.26,349.46l-6.87-5.5-14.63,7.31,0.64,1,1.25,1.88,15.15,22.73C363.4,367.32,363.95,357.74,368.26,349.46Z" transform="translate(-273.94 -75.2)"/><path class="cls-16" d="M469.77,391.32h0q-1.15,1.15-2.18,2.4a13.13,13.13,0,0,1,4.22,6.56,25.84,25.84,0,0,1,3.12-3.78l9.14-9.14a111.3,111.3,0,0,1,2.49-12.83Z" transform="translate(-273.94 -75.2)"/><path class="cls-16" d="M460.92,417.44c-0.27,0-.52,0-0.79,0v52.45a46.16,46.16,0,0,1,7.31,6.06v-60.8A10.47,10.47,0,0,1,460.92,417.44Z" transform="translate(-273.94 -75.2)"/><path class="cls-16" d="M326.15,391.32L303.3,368.47h0a29.28,29.28,0,0,0-4.7,5.61L321,396.49a25.4,25.4,0,0,1,7.22,14.31,26,26,0,0,1,.28,3.8v4.54q3.56,3.85,7.32,7.51v-12A32.72,32.72,0,0,0,326.15,391.32Z" transform="translate(-273.94 -75.2)"/><path class="cls-7" d="M378,308.43a47,47,0,0,0,39.87,0,7.31,7.31,0,1,0-6.59-13.06,33.5,33.5,0,0,1-26.7,0,7.31,7.31,0,0,0-9.45,2.58,7.4,7.4,0,0,0-.37.65A7.31,7.31,0,0,0,378,308.43Z" transform="translate(-273.94 -75.2)"/><polygon class="cls-5" points="129.56 381.61 129.56 381.6 129.56 381.6 129.56 381.61"/><path class="cls-5" d="M427,453.13a39.48,39.48,0,0,1-23.52-4.84v8.5c11.32-4.44,23.52,0,23.52,0h0v-8.52h0v4.85Z" transform="translate(-273.94 -75.2)"/><path class="cls-4" d="M427,453.13v-4.85a61.36,61.36,0,0,1-23.52,0h0A39.48,39.48,0,0,0,427,453.13Z" transform="translate(-273.94 -75.2)"/><path class="cls-4" d="M365,392.35a13.26,13.26,0,0,0-6.9,12c0,7.23,5.14,13.09,11.47,13.09a10.14,10.14,0,0,0,3.09-.49c-0.66-2.47-1.18-5-1.59-7.47C368.61,410.59,366.41,404.18,365,392.35Z" transform="translate(-273.94 -75.2)"/><path class="cls-4" d="M467.6,393.72a11.3,11.3,0,0,0-1.41-1c-2.23,9-5.28,15.54-6.58,15.55a80.32,80.32,0,0,1-1.78,8.67,10.15,10.15,0,0,0,2.3.45c0.26,0,.52,0,0.79,0a10.47,10.47,0,0,0,6.53-2.33h0a13.68,13.68,0,0,0,4.94-10.75,14.76,14.76,0,0,0-.57-4.07h0A13.13,13.13,0,0,0,467.6,393.72Z" transform="translate(-273.94 -75.2)"/><path class="cls-5" d="M401.62,447.86q0.92,0.23,1.88.43a61.36,61.36,0,0,0,23.52,0h0c18.56-3.85,27-17,30.82-31.34a80.32,80.32,0,0,0,1.78-8.67h0c-3.74,0-.61-23.43-10.16-26.94-4.78-1.76-12-10.93-12-10.93A88.59,88.59,0,0,1,398,376.05c-21.4-2.12-24.58,12.07-24.93,15.2s1.38,16.73-2,18.22h0c0.41,2.5.93,5,1.59,7.47,3.12,11.72,9.33,22.65,21.63,28.35A41.14,41.14,0,0,0,401.62,447.86Zm10.93-12.05c0-.61,1,0.65,2.7.65s2.7-1.26,2.7-.65-0.49,1.77-2.7,1.77S412.55,436.41,412.55,435.8Zm2.7-2.25c-10.16,0-12.4-3.14-12.4-3.94s4.66,2.35,12.4,2.35,12.39-3.15,12.39-2.35S425.41,433.55,415.25,433.55Zm7.82-15.19c0,1.76-1.41,5.11-7.82,5.11s-7.82-3.35-7.82-5.11,2.94,1.88,7.82,1.88S423.07,416.59,423.07,418.36Zm15-11.74a5.43,5.43,0,1,1,4.94-5.41A5.19,5.19,0,0,1,438.08,406.62Zm7.29-18.82c-2.34,1.17-6.09-4-14.67.5-1.56.82-2.5-7,6.7-7C445.37,381.34,446.78,387.11,445.37,387.81Zm-60.24,0c-1.41-.7,0-6.47,8-6.47,9.2,0,8.27,7.78,6.7,7C391.22,383.84,387.47,389,385.13,387.81Zm7.9,18.82a5.43,5.43,0,1,1,4.94-5.41A5.19,5.19,0,0,1,393,406.62Z" transform="translate(-273.94 -75.2)"/><path class="cls-17" d="M398,401.21a5,5,0,1,0-4.94,5.41A5.19,5.19,0,0,0,398,401.21Zm-7.09-.91a1.48,1.48,0,1,1,1.48-1.48A1.48,1.48,0,0,1,390.88,400.3Z" transform="translate(-273.94 -75.2)"/><circle class="cls-18" cx="116.94" cy="323.63" r="1.48"/><path class="cls-8" d="M399.8,388.31c1.57,0.82,2.5-7-6.7-7-8,0-9.38,5.76-8,6.47C387.47,389,391.22,383.84,399.8,388.31Z" transform="translate(-273.94 -75.2)"/><path class="cls-17" d="M438.08,395.8a5.43,5.43,0,1,0,4.94,5.41A5.19,5.19,0,0,0,438.08,395.8Zm-2.15,4.5a1.48,1.48,0,1,1,1.48-1.48A1.48,1.48,0,0,1,435.93,400.3Z" transform="translate(-273.94 -75.2)"/><circle class="cls-18" cx="161.99" cy="323.63" r="1.48"/><path class="cls-8" d="M430.71,388.31c8.58-4.47,12.33.67,14.67-.5,1.41-.7,0-6.47-8-6.47C428.21,381.34,429.14,389.12,430.71,388.31Z" transform="translate(-273.94 -75.2)"/><path class="cls-4" d="M415.25,420.24c-4.88,0-7.82-3.65-7.82-1.88s1.41,5.11,7.82,5.11,7.82-3.35,7.82-5.11S420.13,420.24,415.25,420.24Z" transform="translate(-273.94 -75.2)"/><path class="cls-4" d="M398,279.36c-7.11,0-11.39-5.31-11.39-2.74s2.06,7.45,11.39,7.45,11.4-4.89,11.4-7.45S405.08,279.36,398,279.36Z" transform="translate(-273.94 -75.2)"/><path class="cls-4" d="M418,435.8c0-.61-1,0.65-2.7.65s-2.7-1.26-2.7-.65,0.49,1.77,2.7,1.77S418,436.41,418,435.8Z" transform="translate(-273.94 -75.2)"/><path class="cls-7" d="M415.25,432c-7.74,0-12.4-3.15-12.4-2.35s2.24,3.94,12.4,3.94,12.39-3.14,12.39-3.94S423,432,415.25,432Z" transform="translate(-273.94 -75.2)"/><path class="cls-19" d="M415.25,466.12a23.27,23.27,0,0,1-17.35-8.17c1.85-.45,3.72-0.82,5.6-1.14h0l-1.88.34c-2.47.48-4.91,1.06-7.32,1.75a90.84,90.84,0,0,0-9.33,3.22,203.53,203.53,0,0,0,30.28,12.64v-8.64Z" transform="translate(-273.94 -75.2)"/><path class="cls-19" d="M467.45,475.91h0a46.16,46.16,0,0,0-7.31-6.06,86,86,0,0,0-28.49-12.12l1.57,0.37c-1,1.07-7.77,8-18,8v8.64a204.29,204.29,0,0,0,57.09,9.94C472.08,481.94,470.33,478.93,467.45,475.91Z" transform="translate(-273.94 -75.2)"/><path class="cls-19" d="M427.21,456.84l1.27,0.22Z" transform="translate(-273.94 -75.2)"/><path class="cls-19" d="M429.52,457.27l1.38,0.28Z" transform="translate(-273.94 -75.2)"/><path class="cls-20" d="M429.52,457.27l-1-.21-1.27-.22-0.2,0h0c0,0.05-3.49,4.26-11.75,4.26s-11.66-4.14-11.75-4.26c-1.88.32-3.75,0.7-5.6,1.14a23.27,23.27,0,0,0,17.35,8.17c10.2,0,17-7,18-8l-1.57-.37-0.75-.17Z" transform="translate(-273.94 -75.2)"/><path class="cls-5" d="M415.25,461.06c8.27,0,11.71-4.21,11.75-4.26h0s-12.2-4.44-23.52,0h0C403.6,456.92,407,461.06,415.25,461.06Z" transform="translate(-273.94 -75.2)"/><path class="cls-8" d="M371.09,409.48h0c3.33-1.49,1.6-15.09,2-18.22s3.53-17.32,24.93-15.2a88.59,88.59,0,0,0,39.44-5.64s7.26,9.18,12,10.93c9.55,3.51,6.41,26.94,10.16,26.94h0c1.3,0,4.35-6.53,6.58-15.55,2.51-10.15,4-23.47.7-34.27-2.2-7.26-6.53-13.38-14.12-16.63,0,0-6-7.6-18.23-12.06l-0.59-.2c-8.29-2.91-19.36-4.35-33.3-1.13-8.79,2-15.54,4.87-20.72,8.31a33.92,33.92,0,0,0-11.65,12.72c-4.32,8.29-4.86,17.86-4.46,27.38,0,0.49,0,1,.07,1.46,0.27,5.27.66,10,1.14,14C366.41,404.18,368.61,410.59,371.09,409.48Z" transform="translate(-273.94 -75.2)"/><path class="cls-21" d="M511,474.32a4.32,4.32,0,0,1,.74-2.28,14,14,0,0,1,.37-2.56c-12.9-6.24-28.21-24.44-29.42-54.64-0.35,13.2.21,26.7,2.74,37,4,16.28-15.52,13.82-15.52,13.82,0,8,3.75,13.86,9.54,18.07q0.74,0.54,1.52,1h0q8.37-.09,16.56-0.84A54.45,54.45,0,0,1,511,474.32Z" transform="translate(-273.94 -75.2)"/><path class="cls-21" d="M526.22,457.75c-14.1-4.53-21.45-15.09-25.25-26.9a129.66,129.66,0,0,0,11.73,36.91C514.89,462.32,520.52,459.36,526.22,457.75Z" transform="translate(-273.94 -75.2)"/><path class="cls-21" d="M602.32,417.88c-1,13.16-4.65,23.92-9.56,32.27q4.17-2.8,8.19-5.79A170.27,170.27,0,0,0,602.32,417.88Z" transform="translate(-273.94 -75.2)"/><path class="cls-21" d="M584.25,430.85c-3.8,11.81-11.15,22.37-25.25,26.9,4,1.12,8,2.91,10.74,5.76,2.07-1,4.13-2.08,6.15-3.18A127.53,127.53,0,0,0,584.25,430.85Z" transform="translate(-273.94 -75.2)"/><path class="cls-22" d="M559,457.75a45,45,0,0,1-4.63,1.21v8.58q2.29,0.42,4.51,1,5.51-2.35,10.85-5C567,460.67,563,458.88,559,457.75Z" transform="translate(-273.94 -75.2)"/><path class="cls-22" d="M524.61,468.66a2.61,2.61,0,0,0,0,.32c2-.57,4.12-1.05,6.24-1.44V459h0a45,45,0,0,1-4.63-1.21c-5.71,1.6-11.33,4.57-13.52,10,0.56,1.12,1,1.9,1.18,2.28C517.94,467.42,524.86,467,524.61,468.66Z" transform="translate(-273.94 -75.2)"/><path class="cls-22" d="M513.69,470.17c-0.51-.21-1-0.45-1.54-0.7a14,14,0,0,0-.37,2.56A6.9,6.9,0,0,1,513.69,470.17Z" transform="translate(-273.94 -75.2)"/><path class="cls-5" d="M530.85,459v8.5c11.32-4.44,23.52,0,23.52,0v-3.66A39.45,39.45,0,0,1,530.85,459Z" transform="translate(-273.94 -75.2)"/><path class="cls-5" d="M554.37,467.54v0h0Z" transform="translate(-273.94 -75.2)"/><path class="cls-5" d="M530.85,467.54v0h0Z" transform="translate(-273.94 -75.2)"/><path class="cls-4" d="M542.61,460.1A57.8,57.8,0,0,1,530.85,459h0a39.45,39.45,0,0,0,23.52,4.84V459A57.79,57.79,0,0,1,542.61,460.1Z" transform="translate(-273.94 -75.2)"/><path class="cls-5" d="M526.22,457.75a45,45,0,0,0,4.63,1.21,61.37,61.37,0,0,0,23.52,0,45,45,0,0,0,4.63-1.21c14.1-4.53,21.45-15.09,25.25-26.9v-0.06h0l0-.23q0.27-1.87.49-3.78c0.9-9.88.63-35.3-24.27-44.16,0,0-19.86,10-37.4,8-15-1.71-22.06,11.28-23.15,22.6a93.54,93.54,0,0,0,1,17.66C504.77,442.66,512.12,453.22,526.22,457.75Zm-5.84-40.45a5.43,5.43,0,1,1,4.94-5.41A5.19,5.19,0,0,1,520.39,417.3Zm19.52,29.18c0-.61,1,0.65,2.7.65s2.7-1.26,2.7-.65-0.49,1.77-2.7,1.77S539.91,447.1,539.91,446.48Zm2.7-2.25c-10.16,0-12.39-3.14-12.39-3.94s4.66,2.36,12.39,2.36,12.4-3.15,12.4-2.36S552.76,444.23,542.61,444.23ZM550.42,429c0,1.77-1.41,5.11-7.82,5.11s-7.82-3.35-7.82-5.11,2.94,1.88,7.82,1.88S550.42,427.27,550.42,429Zm10.08-17.14a5,5,0,1,1,4.94,5.41A5.19,5.19,0,0,1,560.5,411.89Zm11.5,24a6.7,6.7,0,1,1,6.7-6.7A6.7,6.7,0,0,1,572,435.88Zm-7.24-40.6c8,0,9.38,4.41,8,5-2.34.9-6.09-3-14.67,0.38C556.5,401.24,555.56,395.28,564.76,395.28Zm-44.31,0c9.2,0,8.27,6,6.7,5.34-8.58-3.42-12.33.51-14.67-.38C511.08,399.69,512.49,395.28,520.45,395.28ZM514,422.48a6.7,6.7,0,1,1-6.7,6.7A6.7,6.7,0,0,1,514,422.48Z" transform="translate(-273.94 -75.2)"/><path class="cls-17" d="M520.39,406.49a5.43,5.43,0,1,0,4.94,5.41A5.19,5.19,0,0,0,520.39,406.49Zm-2.15,4.5a1.48,1.48,0,1,1,1.48-1.48A1.48,1.48,0,0,1,518.23,411Z" transform="translate(-273.94 -75.2)"/><circle class="cls-18" cx="244.3" cy="334.31" r="1.48"/><path class="cls-23" d="M512.49,400.23c2.34,0.9,6.09-3,14.67.38,1.57,0.63,2.5-5.34-6.7-5.34C512.49,395.28,511.08,399.69,512.49,400.23Z" transform="translate(-273.94 -75.2)"/><path class="cls-17" d="M570.38,411.89a5,5,0,1,0-4.94,5.41A5.19,5.19,0,0,0,570.38,411.89Zm-7.09-.91a1.48,1.48,0,1,1,1.48-1.48A1.48,1.48,0,0,1,563.28,411Z" transform="translate(-273.94 -75.2)"/><circle class="cls-18" cx="289.35" cy="334.31" r="1.48"/><path class="cls-23" d="M558.06,400.62c8.58-3.42,12.33.51,14.67-.38,1.41-.54,0-5-8-5C555.56,395.28,556.5,401.24,558.06,400.62Z" transform="translate(-273.94 -75.2)"/><path class="cls-4" d="M534.79,429c0,1.76,1.41,5.11,7.82,5.11s7.82-3.35,7.82-5.11-2.94,1.88-7.82,1.88S534.79,427.27,534.79,429Z" transform="translate(-273.94 -75.2)"/><path class="cls-4" d="M542.61,448.25c2.22,0,2.7-1.16,2.7-1.77s-1,.65-2.7.65-2.7-1.26-2.7-.65S540.39,448.25,542.61,448.25Z" transform="translate(-273.94 -75.2)"/><path class="cls-7" d="M555,440.29c0-.8-4.66,2.36-12.4,2.36s-12.39-3.15-12.39-2.36,2.24,3.94,12.39,3.94S555,441.09,555,440.29Z" transform="translate(-273.94 -75.2)"/><circle class="cls-24" cx="240.1" cy="353.98" r="6.7"/><circle class="cls-24" cx="298.07" cy="353.98" r="6.7"/><path class="cls-25" d="M511,474.52c0-.07,0-0.14,0-0.2a54.45,54.45,0,0,0-13.47,9.62q9.62-.88,19-2.63C513.44,479.31,511.08,477,511,474.52Z" transform="translate(-273.94 -75.2)"/><path class="cls-25" d="M524.61,469v0c0.69-.19,1.38-0.38,2.08-0.55h0q1-.25,2-0.47l0.72-.15,1.43-.28v0h0C528.73,467.93,526.64,468.41,524.61,469Z" transform="translate(-273.94 -75.2)"/><path class="cls-25" d="M554.37,467.54h0v0l1.4,0.28,0.76,0.15q1,0.22,2,.46h0l0.32,0.07,0,0Q556.66,468,554.37,467.54Z" transform="translate(-273.94 -75.2)"/><path class="cls-26" d="M529.42,467.84l-0.72.15Z" transform="translate(-273.94 -75.2)"/><path class="cls-26" d="M526.69,468.46c-0.7.17-1.39,0.36-2.08,0.55,0,1.88,1.93,5.71,4.73,9.48l2.07-.54A16.88,16.88,0,0,1,526.69,468.46Z" transform="translate(-273.94 -75.2)"/><path class="cls-26" d="M558.52,468.46l0,0.23,0.36-.16Z" transform="translate(-273.94 -75.2)"/><path class="cls-26" d="M555.77,467.84l0.76,0.15Z" transform="translate(-273.94 -75.2)"/><path class="cls-27" d="M530.85,467.56l-1.43.28-0.72.15q-1,.22-2,0.47h0a16.88,16.88,0,0,0,4.72,9.49q2.4-.64,4.77-1.33C531.21,473.91,530.87,468.29,530.85,467.56Z" transform="translate(-273.94 -75.2)"/><path class="cls-27" d="M558.52,468.46h0q-1-.24-2-0.46l-0.76-.15-1.4-.28a12,12,0,0,1-.55,3q2.35-.93,4.67-1.91Z" transform="translate(-273.94 -75.2)"/><path class="cls-5" d="M554.36,467.56v-0.09s-12.2-4.44-23.52,0v0.08c0,0.73.35,6.35,5.34,9.06q9-2.62,17.63-6A12,12,0,0,0,554.36,467.56Z" transform="translate(-273.94 -75.2)"/><path class="cls-28" d="M524.61,469v0a2.61,2.61,0,0,1,0-.32c0.25-1.62-6.67-1.25-10.73,1.38l0.15,0.28-0.35-.15a6.9,6.9,0,0,0-1.91,1.87,4.32,4.32,0,0,0-.74,2.28c0,0.07,0,.13,0,0.2,0,2.51,2.4,4.79,5.51,6.79q6.47-1.21,12.8-2.81C526.54,474.73,524.61,470.9,524.61,469Z" transform="translate(-273.94 -75.2)"/><path class="cls-13" d="M602.32,417.88c0.16-2.23.26-4.53,0.26-6.9a187,187,0,0,0-.91-19.14c-1.42-13.75-4.83-27.73-12.29-38.85a49,49,0,0,0-8.8-10,46.25,46.25,0,0,0-7.56-5.27h0c-7.91-4.42-17.87-7-30.41-7a79,79,0,0,0-10.91.73c-10,1.4-18.07,4.76-24.47,9.49a46.14,46.14,0,0,0-4,3.28,55.88,55.88,0,0,0-13.91,21.47,84,84,0,0,0-2.78,8.8h0a111.3,111.3,0,0,0-2.49,12.83h0A176,176,0,0,0,482.64,411c0,1.31,0,2.59.09,3.85,1.21,30.19,16.52,48.4,29.42,54.64,0.52,0.25,1,.48,1.54.7l0.35,0.15-0.15-.28c-0.21-.38-0.62-1.16-1.18-2.28A129.66,129.66,0,0,1,501,430.85a93.54,93.54,0,0,1-1-17.66,30.57,30.57,0,0,0,0,5.62L494,392l10.58-21.19,30.16-15.52,28.5,1.32,13.52,11.73,11.48,14.27,8.07,9.39-3.88,28.9-8.21,9.87v0.06a127.53,127.53,0,0,1-8.36,29.48q8.7-4.69,16.87-10.19C597.67,441.8,601.35,431,602.32,417.88Z" transform="translate(-273.94 -75.2)"/><path class="cls-13" d="M584.77,426.79q-0.21,1.91-.49,3.78C584.38,430.08,584.6,428.75,584.77,426.79Z" transform="translate(-273.94 -75.2)"/><path class="cls-13" d="M523.1,390.59c17.53,2,37.4-8,37.4-8,24.9,8.86,25.18,34.28,24.27,44.16-0.18,2-.4,3.29-0.49,3.78l0,0.23h0l8.21-9.87,3.88-28.9-8.07-9.39L576.8,368.37l-13.52-11.73-28.5-1.32-30.16,15.52L494,392l5.85,26.78a30.57,30.57,0,0,1,0-5.62C501,401.87,508.14,388.88,523.1,390.59Z" transform="translate(-273.94 -75.2)"/><path class="cls-8" d="M445.7,242.48c2.08,1.57,5.33-9.52-8-11.76-11.58-1.94-15,6.09-13.16,7.46C427.61,240.45,434.31,233.9,445.7,242.48Z" transform="translate(-273.94 -75.2)"/><path class="cls-8" d="M367.6,240c2.47,0.82,2-10.72-11.38-8.56-11.59,1.87-12.3,10.58-10.08,11.28C349.81,243.91,354.06,235.56,367.6,240Z" transform="translate(-273.94 -75.2)"/><path class="cls-4" d="M558.64,281.43c-5.68,0-9.1-6.11-9.1-3.15s1.64,8.58,9.1,8.58,9.1-5.62,9.1-8.58S564.32,281.43,558.64,281.43Z" transform="translate(-273.94 -75.2)"/><path class="cls-8" d="M606.28,243.1c1.85,1,4.47-5.32-7.28-7.05-10.17-1.5-13,3-11.35,3.87C590.42,241.33,596.14,237.77,606.28,243.1Z" transform="translate(-273.94 -75.2)"/><path class="cls-8" d="M528.11,241.12c2.14,0.3,1.92-6.37-9.77-4.14-10.12,1.93-10.88,7-9,7.28C512.56,244.66,516.4,239.51,528.11,241.12Z" transform="translate(-273.94 -75.2)"/><circle class="cls-24" cx="330.31" cy="213.66" r="6.7"/><circle class="cls-24" cx="238.21" cy="213.66" r="6.7"/></svg>