<svg id="Layer_1" data-name="Layer 1" xmlns="http://www.w3.org/2000/svg" viewBox="0 0 434.3 125.19"><defs><style>.cls-1{fill:#0087b0;}.cls-2{fill:#323b43;}</style></defs><title>logo-lettering</title><path class="cls-1" d="M451.45,311.05v9.18H419.72v-47.5h10.69v38.31h21Z" transform="translate(-182.85 -237.4)"/><path class="cls-1" d="M488.39,319a56.44,56.44,0,0,1-6.72,1.41,55.49,55.49,0,0,1-8.64.65,20.46,20.46,0,0,1-7.64-1.23,11.58,11.58,0,0,1-4.83-3.46,13.48,13.48,0,0,1-2.54-5.31,28.51,28.51,0,0,1-.75-6.79V284.18h10.21V303q0,4.93,1.3,7.13t4.87,2.19q1.09,0,2.33-.1t2.19-.24V284.18h10.21V319Z" transform="translate(-182.85 -237.4)"/><path class="cls-1" d="M529.79,319.07q-1.37.41-3.15,0.79t-3.73.65q-2,.27-4,0.45t-3.87.17a22.68,22.68,0,0,1-7.95-1.3,16,16,0,0,1-5.89-3.73,16.21,16.21,0,0,1-3.67-5.89,22.48,22.48,0,0,1-1.27-7.78,26.62,26.62,0,0,1,1.1-7.92,17.21,17.21,0,0,1,3.15-6,13.49,13.49,0,0,1,5-3.77,16.88,16.88,0,0,1,6.82-1.3,16,16,0,0,1,3.8.41,20.58,20.58,0,0,1,3.39,1.17V268.7l10.21-1.64v52Zm-23.1-17.14a12.51,12.51,0,0,0,2.12,7.61,7.33,7.33,0,0,0,6.31,2.88c0.91,0,1.76,0,2.54-.1s1.41-.15,1.92-0.24V293.51a8.91,8.91,0,0,0-2.5-1,12,12,0,0,0-3.12-.41Q506.69,292.07,506.69,301.94Z" transform="translate(-182.85 -237.4)"/><path class="cls-1" d="M570.16,319a56.62,56.62,0,0,1-6.72,1.41,55.48,55.48,0,0,1-8.63.65,20.47,20.47,0,0,1-7.64-1.23,11.58,11.58,0,0,1-4.83-3.46,13.49,13.49,0,0,1-2.54-5.31,28.51,28.51,0,0,1-.75-6.79V284.18h10.21V303q0,4.93,1.3,7.13t4.87,2.19c0.73,0,1.51,0,2.33-.1s1.55-.15,2.19-0.24V284.18h10.21V319Z" transform="translate(-182.85 -237.4)"/><path class="cls-1" d="M590.1,312.9a10.21,10.21,0,0,0,4-.55,2.12,2.12,0,0,0,1.16-2.12,2.6,2.6,0,0,0-1.51-2.16,28.73,28.73,0,0,0-4.59-2.09,46.79,46.79,0,0,1-4.35-1.85,12.79,12.79,0,0,1-3.32-2.29,9.27,9.27,0,0,1-2.12-3.19,11.77,11.77,0,0,1-.75-4.45,9.63,9.63,0,0,1,3.77-8q3.77-2.95,10.35-2.95a33.31,33.31,0,0,1,6.3.58,29.57,29.57,0,0,1,4.8,1.27L602,293a37.44,37.44,0,0,0-3.87-1.1,21.07,21.07,0,0,0-4.69-.48q-4.8,0-4.8,2.67a2.75,2.75,0,0,0,.21,1.1,2.33,2.33,0,0,0,.82.93,11.65,11.65,0,0,0,1.68,1q1.06,0.52,2.71,1.14a42,42,0,0,1,5.55,2.45,13.28,13.28,0,0,1,3.46,2.61,8.09,8.09,0,0,1,1.78,3.11,13.79,13.79,0,0,1,.51,4,9.14,9.14,0,0,1-4,8.07q-4,2.73-11.34,2.73a32,32,0,0,1-12.4-2.19l1.71-8.29a33.33,33.33,0,0,0,5.35,1.61A25.84,25.84,0,0,0,590.1,312.9Z" transform="translate(-182.85 -237.4)"/><path class="cls-1" d="M610.16,267.05v1h-1.8v4.66h-1.18V268.1h-1.8v-1h4.78Zm6.51,0q0.14,0.87.24,2.24t0.24,3.47H616c0-.29,0-0.59,0-0.92s0-.65,0-1,0-.65-0.06-1,0-.62-0.07-0.89c-0.12.22-.26,0.47-0.41,0.76l-0.44.87-0.41.8c-0.13.25-.23,0.45-0.3,0.6h-0.84c-0.07-.15-0.17-0.35-0.3-0.6l-0.41-.8-0.44-.87-0.4-.76q0,0.41-.07.89t-0.06,1q0,0.49,0,1c0,0.33,0,.63,0,0.92H610.4q0.14-2.11.24-3.47t0.24-2.24H612l0.34,0.7,0.44,0.89,0.49,1,0.49,1c0.15-.31.31-0.63,0.48-1l0.5-1,0.45-.89,0.34-.7h1.13Z" transform="translate(-182.85 -237.4)"/><path class="cls-2" d="M343.37,301.15q0-4.93-1.27-7a4.7,4.7,0,0,0-4.35-2.06q-1,0-2,.1t-2,.24v27.83H323.56V285.45q1.3-.34,3-0.72t3.7-.69q2-.31,4-0.48t4-.17a17,17,0,0,1,6.34,1,14.35,14.35,0,0,1,4,2.37A19.08,19.08,0,0,1,359,283.4a18,18,0,0,1,7.09,1.2,10.7,10.7,0,0,1,4.42,3.39,12.84,12.84,0,0,1,2.26,5.21,33.59,33.59,0,0,1,.62,6.72v20.35H363.17V301.15q0-4.93-1.27-7a4.71,4.71,0,0,0-4.35-2.06,9.19,9.19,0,0,0-2.3.41,9,9,0,0,0-2.43,1,15.63,15.63,0,0,1,.62,3.32q0.14,1.75.14,3.74v19.67H343.37V301.15Z" transform="translate(-182.85 -237.4)"/><path class="cls-2" d="M413.62,284.22q-3.09,10.42-6.46,19.53t-7.35,17.68a40.28,40.28,0,0,1-2.88,5.24,16.13,16.13,0,0,1-3.16,3.56,11.13,11.13,0,0,1-3.88,2.06,17.63,17.63,0,0,1-5,.65,20.62,20.62,0,0,1-4.43-.45,19.71,19.71,0,0,1-3.33-1l1.78-8.16a17.25,17.25,0,0,0,2.81.75,15.89,15.89,0,0,0,2.61.21,5.71,5.71,0,0,0,4.22-1.47,11.85,11.85,0,0,0,2.5-4.08q-3.5-6.85-7-15.39a191.5,191.5,0,0,1-6.58-19.16h10.83q0.69,2.67,1.62,5.79t2,6.31q1,3.19,2.1,6.2t2,5.48q0.89-2.47,1.86-5.48t1.89-6.2q0.93-3.19,1.79-6.31t1.55-5.79h10.56Z" transform="translate(-182.85 -237.4)"/><path class="cls-1" d="M275,256.91c0,3.59-3.36,6.5-7.51,6.5h0c-4.15,0-7.52-2.91-7.52-6.5v-13c0-3.59,3.36-6.5,7.52-6.5h0c4.15,0,7.51,2.91,7.51,6.5v13Z" transform="translate(-182.85 -237.4)"/><path class="cls-1" d="M235,256.91c0,3.59-3.36,6.5-7.52,6.5h0c-4.15,0-7.51-2.91-7.51-6.5v-13c0-3.59,3.37-6.5,7.51-6.5h0c4.15,0,7.52,2.91,7.52,6.5v13Z" transform="translate(-182.85 -237.4)"/><path class="cls-2" d="M207.41,309.79V280.3a10,10,0,0,1,10-10h60.12a10,10,0,0,1,10,10v29.49c3.3-.88,6.4-1.86,9.22-2.9l0.8-.31v-44a10,10,0,0,0-10-10h-9v3.87c0,5.53-5.49,10-11,10s-11-4.49-11-10v-3.87h-18v3.87c0,5.53-5.49,10-11,10s-11-4.49-11-10v-3.87h-9a10,10,0,0,0-10,10v44l0.8,0.31C201,307.94,204.12,308.92,207.41,309.79Z" transform="translate(-182.85 -237.4)"/><path class="cls-1" d="M266.27,313.69v-1.14h0v0h-3.65v-2.6h-3.21c-1.47-4.4-7.6-5.74-7.6-5.74,0-5.57,2.55-7.14,3.61-7.56l0.45-.13h0a17,17,0,0,0,8.23-5.29,14.51,14.51,0,0,0,1.45-2.09,18.71,18.71,0,0,0,2-11.49h-6.41v-2.27H233.84v2.27h-6.41a18.7,18.7,0,0,0,2,11.49,14.49,14.49,0,0,0,1.44,2.09,17,17,0,0,0,8.23,5.29h0l0.45,0.13c1.06,0.41,3.61,2,3.61,7.56,0,0-6.14,1.34-7.6,5.74h-3.21v2.6h-3.65v1.2A172.8,172.8,0,0,0,266.27,313.69Zm-5.83-34.12h4c-0.16,11-5.57,12.12-5.57,12.12C260.73,289,260.44,279.58,260.44,279.58Zm-29.89,0h4s-0.28,9.44,1.59,12.12C236.13,291.7,230.72,290.62,230.56,279.58Z" transform="translate(-182.85 -237.4)"/><path class="cls-2" d="M311.45,301.88A55.41,55.41,0,0,1,297.59,309a104.88,104.88,0,0,1-10,3.13l-0.8.2a148.94,148.94,0,0,1-20.5,3.62,173.12,173.12,0,0,1-37.56,0,149,149,0,0,1-20.5-3.62l-0.8-.2a104.64,104.64,0,0,1-10-3.13,55.44,55.44,0,0,1-13.86-7.15l-0.69-.42a67.53,67.53,0,0,0,7.27,6.39,71.52,71.52,0,0,0,7.27,4.85l0,0c1.28,0.75,2.57,1.47,3.9,2.15l0.18,0.09c1.35,0.68,2.73,1.32,4.12,1.92l0.31,0.14c0.48,0.21,1,.4,1.47.59s0.78,0.33,1.18.47l0.16,0.07,0.17,0.06,1.27,0.48q1.43,0.52,2.88,1l0.32,0.1c0.45,0.14.91,0.27,1.36,0.41,0.76,0.23,1.51.46,2.27,0.67l0.61,0.18,0.79,0.21,0.69,0.17q1.1,0.28,2.21.53l0.36,0.08,0.43,0.09h0l0.56,0.13,0.38,0.07,0.48,0.1,0.79,0.15,1.23,0.24,0.67,0.11,0.15,0,0.18,0,0.2,0,2,0.33,0.52,0.07,2.07,0.29,0.56,0.07,2,0.24,0.65,0.06,2,0.19,0.81,0.06,1.85,0.13,1.07,0.05,1.62,0.09,1.49,0,1.24,0,2.76,0h0l2.76,0,1.25,0,1.48,0,1.63-.09,1.06-.05,1.85-.13,0.81-.06,2-.19,0.65-.06,2.06-.24,0.55-.07,2.08-.29,0.51-.07,2.05-.33,0.37-.06,0.15,0,0.57-.1,0.1,0,1.23-.24,0.79-.15,0.48-.1,0.38-.07,0.58-.13,0.43-.09,0.36-.08,0.16,0,2.05-.5,0.69-.17,0.8-.21,0.61-.18q1.83-.5,3.63-1.08l0.33-.1c0.6-.19,1.18-0.41,1.77-0.61l1.1-.38,1.28-.48,0.17-.06,0.16-.07c0.4-.15.79-0.32,1.18-0.47s1-.39,1.47-0.59c0.3-.13.59-0.28,0.9-0.42,1.19-.53,2.38-1.07,3.54-1.65l0.18-.09c1.33-.67,2.63-1.39,3.9-2.14l0,0c2-1.15,3.89-2.38,5.73-3.71a67.87,67.87,0,0,0,8.81-7.54Z" transform="translate(-182.85 -237.4)"/><path class="cls-1" d="M297.56,315.74q-1.52.89-3.08,1.71l-0.82.44-0.18.09-0.92.44v36.67A2.52,2.52,0,0,1,290,357.6h-85.1a2.52,2.52,0,0,1-2.51-2.51V318.42l-0.92-.44-0.18-.09-0.82-.44q-1.56-.82-3.08-1.71v39.35a7.52,7.52,0,0,0,7.51,7.51H290a7.52,7.52,0,0,0,7.51-7.51h0V315.74h0Z" transform="translate(-182.85 -237.4)"/><path class="cls-2" d="M252.33,340.66a2.9,2.9,0,0,1-2.9,2.9h-3.87a2.9,2.9,0,0,1-2.9-2.9h0a2.9,2.9,0,0,1,2.9-2.9h3.87a2.9,2.9,0,0,1,2.9,2.9h0Z" transform="translate(-182.85 -237.4)"/><path class="cls-2" d="M252.33,350.33a2.9,2.9,0,0,1-2.9,2.9h-3.87a2.9,2.9,0,0,1-2.9-2.9h0a2.9,2.9,0,0,1,2.9-2.9h3.87a2.9,2.9,0,0,1,2.9,2.9h0Z" transform="translate(-182.85 -237.4)"/><path class="cls-2" d="M252.33,331a2.9,2.9,0,0,1-2.9,2.9h-3.87a2.9,2.9,0,0,1-2.9-2.9h0a2.9,2.9,0,0,1,2.9-2.9h3.87a2.9,2.9,0,0,1,2.9,2.9h0Z" transform="translate(-182.85 -237.4)"/><path class="cls-2" d="M235.89,340.66a2.9,2.9,0,0,1-2.9,2.9h-3.87a2.9,2.9,0,0,1-2.9-2.9h0a2.9,2.9,0,0,1,2.9-2.9H233a2.9,2.9,0,0,1,2.9,2.9h0Z" transform="translate(-182.85 -237.4)"/><path class="cls-2" d="M235.89,350.33a2.9,2.9,0,0,1-2.9,2.9h-3.87a2.9,2.9,0,0,1-2.9-2.9h0a2.9,2.9,0,0,1,2.9-2.9H233a2.9,2.9,0,0,1,2.9,2.9h0Z" transform="translate(-182.85 -237.4)"/><path class="cls-2" d="M235.89,331a2.9,2.9,0,0,1-2.9,2.9h-3.87a2.9,2.9,0,0,1-2.9-2.9h0a2.9,2.9,0,0,1,2.9-2.9H233a2.9,2.9,0,0,1,2.9,2.9h0Z" transform="translate(-182.85 -237.4)"/><path class="cls-2" d="M219.45,340.66a2.9,2.9,0,0,1-2.9,2.9h-3.87a2.9,2.9,0,0,1-2.9-2.9h0a2.9,2.9,0,0,1,2.9-2.9h3.87a2.9,2.9,0,0,1,2.9,2.9h0Z" transform="translate(-182.85 -237.4)"/><path class="cls-2" d="M219.45,350.33a2.9,2.9,0,0,1-2.9,2.9h-3.87a2.9,2.9,0,0,1-2.9-2.9h0a2.9,2.9,0,0,1,2.9-2.9h3.87a2.9,2.9,0,0,1,2.9,2.9h0Z" transform="translate(-182.85 -237.4)"/><path class="cls-2" d="M268.77,340.66a2.9,2.9,0,0,1-2.9,2.9H262a2.9,2.9,0,0,1-2.9-2.9h0a2.9,2.9,0,0,1,2.9-2.9h3.87a2.9,2.9,0,0,1,2.9,2.9h0Z" transform="translate(-182.85 -237.4)"/><path class="cls-2" d="M268.77,350.33a2.9,2.9,0,0,1-2.9,2.9H262a2.9,2.9,0,0,1-2.9-2.9h0a2.9,2.9,0,0,1,2.9-2.9h3.87a2.9,2.9,0,0,1,2.9,2.9h0Z" transform="translate(-182.85 -237.4)"/><path class="cls-2" d="M268.77,331a2.9,2.9,0,0,1-2.9,2.9H262a2.9,2.9,0,0,1-2.9-2.9h0a2.9,2.9,0,0,1,2.9-2.9h3.87a2.9,2.9,0,0,1,2.9,2.9h0Z" transform="translate(-182.85 -237.4)"/><path class="cls-2" d="M285.2,340.66a2.9,2.9,0,0,1-2.9,2.9h-3.87a2.9,2.9,0,0,1-2.9-2.9h0a2.9,2.9,0,0,1,2.9-2.9h3.87a2.9,2.9,0,0,1,2.9,2.9h0Z" transform="translate(-182.85 -237.4)"/><path class="cls-2" d="M285.2,331a2.9,2.9,0,0,1-2.9,2.9h-3.87a2.9,2.9,0,0,1-2.9-2.9h0a2.9,2.9,0,0,1,2.9-2.9h3.87a2.9,2.9,0,0,1,2.9,2.9h0Z" transform="translate(-182.85 -237.4)"/></svg>