<svg id="Layer_2" data-name="Layer 2" xmlns="http://www.w3.org/2000/svg" viewBox="0 0 150.25 192.94"><defs><style>.cls-1{fill:#444;}.cls-2{fill:#ffba00;}.cls-3{fill:#0397e5;}.cls-4{fill:none;}</style></defs><title>new-medal-icon-v2</title><path class="cls-1" d="M2814,206.48h-27.14a13.73,13.73,0,0,1-11.14-5.7l-42.26-58.65a10.13,10.13,0,0,1,8.22-16h36a10.13,10.13,0,0,1,8.22,4.21l39.23,54.44A13.73,13.73,0,0,1,2814,206.48Z" transform="translate(-2731.53 -106.68)"/><path class="cls-2" d="M2830.64,286l-17.79,10.27a25.25,25.25,0,0,1-25.25,0L2769.8,286a25.25,25.25,0,0,1-12.62-21.87V243.56a25.25,25.25,0,0,1,12.62-21.87l17.79-10.27a25.25,25.25,0,0,1,25.25,0l17.79,10.27a25.25,25.25,0,0,1,12.62,21.87V264.1A25.25,25.25,0,0,1,2830.64,286Z" transform="translate(-2731.53 -106.68)"/><path class="cls-3" d="M2871.38,106.68h-36.73a10.38,10.38,0,0,0-8.57,4.52L2775.57,185a13.73,13.73,0,0,0,11.33,21.48h28.52a13.93,13.93,0,0,0,11.5-6.06l53-77.49A10.38,10.38,0,0,0,2871.38,106.68Z" transform="translate(-2731.53 -106.68)"/><polygon class="cls-4" points="37.54 80.7 32.09 88.7 37.69 96.47 37.54 80.7"/></svg>