<?xml version="1.0" encoding="utf-8"?>
<!-- Generator: Adobe Illustrator 19.2.1, SVG Export Plug-In . SVG Version: 6.00 Build 0)  -->
<svg version="1.1" id="Layer_4" xmlns="http://www.w3.org/2000/svg" xmlns:xlink="http://www.w3.org/1999/xlink" x="0px" y="0px"
	 viewBox="0 0 409.6 409.6" style="enable-background:new 0 0 409.6 409.6;" xml:space="preserve">
<style type="text/css">
	.st0{fill:#00DCCD;}
	.st1{fill:#FCC592;}
	.st2{fill:#FF7B88;}
	.st3{fill:#FDCC9B;}
	.st4{fill:#464655;}
	.st5{fill:#F7945E;}
	.st6{fill:#51362A;}
	.st7{fill:#D76473;}
	.st8{fill:none;}
	.st9{fill:#FCBC85;}
	.st10{fill:#3B2519;}
	.st11{fill:#FFFFFF;}
	.st12{fill:#F7941E;}
	.st13{fill:#F36C21;}
	.st14{fill:#4F3226;}
</style>
<title>personal-pack</title>
<path class="st0" d="M195.6,409.4l-2-0.1L195.6,409.4L195.6,409.4z"/>
<path class="st0" d="M149.3,402l-1.7-0.5L149.3,402L149.3,402z"/>
<path class="st0" d="M200.2,409.5h-1.6H200.2L200.2,409.5z"/>
<path class="st0" d="M153.6,403.1h-0.1c12.6,3.3,25.6,5.3,38.6,6.1C179.1,408.4,166.2,406.3,153.6,403.1L153.6,403.1L153.6,403.1z"
	/>
<path class="st0" d="M145.1,400.7l-2.2-0.7L145.1,400.7L145.1,400.7z"/>
<path class="st0" d="M209.4,409.5h1.6H209.4L209.4,409.5z"/>
<path class="st0" d="M216,409.3l-2,0.1L216,409.3L216,409.3z"/>
<path class="st0" d="M124.3,342.3l-10.2-4.1l2.1-33.1c0.5-7.8,5.1-14.8,12.1-18.3l31.6-15.8l18.9-9.4c2.5-1.2,4-3.8,4-6.5V245
	l-30.7-15.4l1.5,26.3l-43.9-7.3c0,0-1.8-77.4,6-118.1c8.6-45.1,38.8-74.8,81-78.7l0,0c2.6-0.2,5.3-0.3,7.9-0.4h0.2
	c2.6,0,5.3,0.1,7.9,0.4c42.2,3.8,72.3,33.6,81,78.7c7.8,40.6,6,118.1,6,118.1l-43.9,7.3l1.5-26.2L226.8,245v10.1
	c0,2.8,1.5,5.3,4,6.5l18.9,9.4l31.6,15.8c7,3.5,11.6,10.5,12.1,18.3l2.1,33.1l-10.2,4.1v50.9c-5.5,2.4-11.1,4.5-16.9,6.4
	c82-26.8,141.2-103.8,141.2-194.7C409.6,91.7,317.9,0,204.8,0S0,91.7,0,204.8c0,90.9,59.2,168,141.2,194.7c-5.7-1.9-11.4-4-16.9-6.3
	L124.3,342.3L124.3,342.3z"/>
<path class="st0" d="M256,403c-12.6,3.3-25.5,5.3-38.5,6.1c13-0.8,25.9-2.8,38.6-6.1L256,403L256,403L256,403z"/>
<path class="st0" d="M262,401.5l-1.7,0.5L262,401.5L262,401.5z"/>
<path class="st0" d="M266.7,400.1l-2.2,0.7L266.7,400.1L266.7,400.1z"/>
<path class="st1" d="M153.6,403c-2.5-0.7-4.9-1.3-7.3-2v-50l-21.9-8.8v50.9c5.5,2.4,11.1,4.5,16.9,6.4l1.7,0.5l2.2,0.7l2.5,0.7
	l1.7,0.5c1.4,0.4,2.8,0.8,4.2,1.1L153.6,403L153.6,403L153.6,403z"/>
<path class="st1" d="M285.3,342.3l-22,8.8V401c-2.4,0.7-4.9,1.4-7.3,2v0.1h0.1c1.4-0.4,2.8-0.7,4.2-1.1l1.7-0.5l2.5-0.7l2.2-0.7
	l1.7-0.5c5.7-1.9,11.4-4,16.9-6.3L285.3,342.3L285.3,342.3L285.3,342.3z"/>
<path class="st2" d="M214,409.4l2-0.1l1.5-0.1c13-0.8,25.9-2.9,38.5-6.1c2.5-0.7,4.9-1.3,7.3-2c-2.4,0.7-4.9,1.4-7.3,2v-66.8
	c0-8.7,3.4-17.1,9.6-23.3l21.5-21.5c1.7,1.8,3.1,3.9,4.1,6.2l-20.5,20.5c-4.8,4.8-7.5,11.3-7.5,18.1v14.8l22-8.8l10.2-4.1l-2.1-33.1
	c-0.5-7.8-5.1-14.8-12.1-18.3l-31.6-15.8l12,6c-7.6,31.4-39.1,50.7-70.5,43.1c-21.3-5.1-38-21.8-43.1-43.1l12-6l-31.6,15.8
	c-7,3.5-11.6,10.5-12.1,18.3l-2.1,33.1l10.2,4.1l21.9,8.8v-14.8c0-6.8-2.7-13.3-7.5-18.1l-20.5-20.5c1-2.3,2.4-4.4,4.1-6.2L144,313
	c6.2,6.2,9.7,14.5,9.6,23.3v66.8c-2.5-0.6-4.9-1.3-7.3-2c2.4,0.7,4.9,1.4,7.3,2c12.6,3.3,25.5,5.3,38.5,6.1l1.5,0.1l2,0.1l2.9,0.1
	h1.6c1.5,0,3.1,0.1,4.6,0.1s3.1,0,4.6-0.1h1.6L214,409.4L214,409.4L214,409.4z"/>
<path class="st1" d="M226.7,255.1V245l-8.8,4.4c-8.2,4.1-17.9,4.1-26.2,0l-8.8-4.4v10.1c0,2.8-1.5,5.3-4,6.5l-18.9,9.4l-12,6
	c7.6,31.4,39.2,50.7,70.5,43.1c21.3-5.1,37.9-21.8,43.1-43.1l-12-6l-18.9-9.4C228.4,260.4,226.8,257.9,226.7,255.1L226.7,255.1
	L226.7,255.1z"/>
<path class="st3" d="M217.9,249.4l8.9-4.4l30.5-15.3l5.8-104.3c-12.2,5.1-34,12.3-72.9,20.8l7.3-14.6c0,0-26.3,12.5-49.6,22.5
	l4.2,75.5l39.6,19.8C199.9,253.6,209.6,253.6,217.9,249.4L217.9,249.4L217.9,249.4z M241.4,160.9c4,0,7.3,3.3,7.3,7.3v7.3
	c0,4-3.3,7.3-7.3,7.3s-7.3-3.3-7.3-7.3l0,0v-7.3C234.1,164.2,237.4,160.9,241.4,160.9L241.4,160.9z M175.6,175.5
	c0,4-3.3,7.3-7.3,7.3c-4,0-7.3-3.3-7.3-7.3l0,0v-7.3c0-4,3.3-7.3,7.3-7.3c4,0,7.3,3.3,7.3,7.3l0,0V175.5z M181.6,210.6
	c1.8-3.6,6.2-5,9.8-3.2c7.4,3.7,19.3,3.7,26.7,0c3.6-1.8,8-0.4,9.8,3.2c1.8,3.6,0.4,8-3.2,9.8l0,0c-12.6,5.9-27.2,5.9-39.9,0
	C181.3,218.6,179.8,214.2,181.6,210.6L181.6,210.6L181.6,210.6z"/>
<path class="st4" d="M168.2,160.9c-4,0-7.3,3.3-7.3,7.3c0,0,0,0,0,0v7.3c0,4,3.3,7.3,7.3,7.3c4,0,7.3-3.3,7.3-7.3v-7.3
	C175.5,164.2,172.3,160.9,168.2,160.9L168.2,160.9z"/>
<path class="st4" d="M241.4,182.8c4,0,7.3-3.3,7.3-7.3v-7.3c0-4-3.3-7.3-7.3-7.3s-7.3,3.3-7.3,7.3l0,0v7.3
	C234.1,179.6,237.3,182.8,241.4,182.8L241.4,182.8z"/>
<path class="st5" d="M184.9,220.5c12.6,5.9,27.2,5.9,39.9,0c3.6-1.8,5.1-6.2,3.2-9.8c-1.8-3.6-6.2-5.1-9.8-3.2
	c-7.4,3.7-19.3,3.7-26.7,0c-3.6-1.8-8-0.3-9.8,3.3C179.8,214.3,181.3,218.7,184.9,220.5L184.9,220.5z"/>
<path class="st6" d="M147.9,154.2c23.3-10,49.5-22.5,49.5-22.5l-7.3,14.6c38.9-8.5,60.7-15.7,72.9-20.8l-5.8,104.3l-1.5,26.2
	l43.9-7.3c0,0,1.8-77.4-6-118.1c-8.6-45.1-38.8-74.8-81-78.7l0,0c-2.6-0.2-5.3-0.3-7.9-0.4h-0.2c-2.6,0-5.3,0.1-7.9,0.4l0,0
	c-42.2,3.8-72.3,33.6-81,78.7c-7.8,40.6-6,118.1-6,118.1l43.9,7.3l-1.5-26.3L147.9,154.2z"/>
<path class="st7" d="M263.3,336.3c0-6.8,2.7-13.3,7.5-18.1l20.5-20.5c-1-2.3-2.4-4.4-4.1-6.2L265.6,313c-6.2,6.2-9.7,14.5-9.6,23.3
	V403c2.5-0.7,4.9-1.3,7.3-2L263.3,336.3L263.3,336.3z"/>
<path class="st7" d="M153.6,403v-66.8c0-8.7-3.4-17.1-9.6-23.3l-21.5-21.5c-1.7,1.8-3.1,3.9-4.1,6.2l20.5,20.5
	c4.8,4.8,7.5,11.3,7.5,18.1V401C148.7,401.7,151.1,402.4,153.6,403L153.6,403L153.6,403z"/>
<path class="st8" d="M246.6,405.2h-3.7c0-10.3,22.1-24.7,45.4-28.6l0,0v-8.5l0,0c-18.6-3.8-27-17-30.8-31.3c-1,0.3-2,0.5-3.1,0.5
	c-6.3,0-11.5-5.9-11.5-13.1c-0.1-5,2.5-9.6,6.9-12c-0.5-4.1-0.9-8.8-1.1-14c-1.1-20.6,1.6-41.8,36.8-49.9
	c35.2-8.1,52.1,13.4,52.1,13.4c18.9,8.1,17.6,33.9,13.4,50.9c4,2.5,6.3,6.9,6.2,11.6c0,7.2-5.1,13.1-11.5,13.1c-1,0-2.1-0.2-3.1-0.5
	c-3.8,14.3-12.3,27.5-30.8,31.3v8.5h0.2l1.3,0.2l1,0.2l0.8,0.1c58.8-37.6,94.3-102.6,94.2-172.3c0-113-91.6-204.6-204.6-204.6
	S0,91.8,0,204.8s91.6,204.7,204.6,204.7C218.8,409.5,232.8,408,246.6,405.2z"/>
<polygon class="st3" points="288.3,376.6 288.3,376.6 288.3,376.6 "/>
<path class="st3" d="M311.8,376.5L311.8,376.5V368l0,0v4.9c-8.2,0.9-16.4-0.8-23.5-4.8v8.5C299.6,372.1,311.8,376.5,311.8,376.5z"/>
<path class="st9" d="M311.8,372.9V368c-7.8,1.5-15.8,1.5-23.5,0l0,0C295.4,372.1,303.6,373.8,311.8,372.9z"/>
<path class="st9" d="M249.8,312.1c-4.4,2.4-7,7-6.9,12c0,7.2,5.1,13.1,11.5,13.1c1,0,2.1-0.2,3.1-0.5c-0.7-2.5-1.2-5-1.6-7.5
	C253.4,330.4,251.2,323.9,249.8,312.1z"/>
<path class="st9" d="M344.4,328c-0.4,2.9-1,5.8-1.8,8.7c1,0.3,2,0.5,3.1,0.5c6.3,0,11.5-5.9,11.5-13.1c0.1-4.7-2.2-9.1-6.2-11.6
	C348.7,321.5,345.7,328,344.4,328z"/>
<path class="st3" d="M311.8,368L311.8,368c18.6-3.9,27-17,30.8-31.3c0.8-2.9,1.3-5.7,1.8-8.7l0,0c-3.7,0-0.6-23.4-10.2-26.9
	c-4.8-1.8-12-10.9-12-10.9c-12.5,4.9-26,6.8-39.4,5.6c-21.4-2.1-24.6,12.1-24.9,15.2s1.4,16.7-2,18.2l0,0c0.4,2.5,0.9,5,1.6,7.5
	c3.8,14.3,12.3,27.5,30.8,31.3C296,369.5,304,369.6,311.8,368z M297.3,355.6c0-0.6,1,0.7,2.7,0.7s2.7-1.3,2.7-0.7
	c0,0.6-0.5,1.8-2.7,1.8S297.3,356.2,297.3,355.6z M322.9,326.4c-3,0.3-5.6-1.9-5.9-4.9c-0.3-3,1.9-5.6,4.9-5.9
	c3-0.3,5.6,1.9,5.9,4.9c0,0.2,0,0.3,0,0.5C328,323.8,325.8,326.2,322.9,326.4z M322.2,301.1c8,0,9.4,5.8,8,6.5
	c-2.3,1.2-6.1-4-14.7,0.5C313.9,308.9,313,301.1,322.2,301.1L322.2,301.1z M300.1,340c4.9,0,7.8-3.6,7.8-1.9c0,1.8-1.4,5.1-7.8,5.1
	s-7.8-3.3-7.8-5.1C292.2,336.4,295.1,340,300.1,340L300.1,340z M277.8,326.4c-3,0.3-5.6-1.9-5.9-4.9c-0.3-3,1.9-5.6,4.9-5.9
	c3-0.3,5.6,1.9,5.9,4.9c0,0.2,0,0.3,0,0.5C282.9,323.8,280.7,326.2,277.8,326.4z M284.6,308.1c-8.6-4.5-12.3,0.7-14.7-0.5
	c-1.4-0.7,0-6.5,8-6.5C287.1,301.1,286.1,308.9,284.6,308.1L284.6,308.1z M287.6,349.4c0-0.8,4.7,2.4,12.4,2.4s12.4-3.2,12.4-2.4
	s-2.2,3.9-12.4,3.9S287.6,350.2,287.6,349.4L287.6,349.4z"/>
<path class="st10" d="M277.8,315.6c-3-0.3-5.6,1.9-5.9,4.9c-0.3,3,1.9,5.6,4.9,5.9c3,0.3,5.6-1.9,5.9-4.9c0-0.2,0-0.3,0-0.5
	C282.9,318.1,280.7,315.7,277.8,315.6z M275.6,320.1c-0.8,0-1.5-0.7-1.5-1.5s0.7-1.5,1.5-1.5c0.8,0,1.5,0.7,1.5,1.5
	S276.5,320.1,275.6,320.1C275.6,320.1,275.6,320.1,275.6,320.1z"/>
<circle class="st11" cx="275.6" cy="318.6" r="1.5"/>
<path class="st6" d="M277.9,301.1c-8,0-9.4,5.8-8,6.5c2.3,1.2,6.1-4,14.7,0.5C286.1,308.9,287.1,301.1,277.9,301.1z"/>
<path class="st10" d="M322.9,315.6c-3-0.3-5.6,1.9-5.9,4.9c-0.3,3,1.9,5.6,4.9,5.9c3,0.3,5.6-1.9,5.9-4.9c0-0.2,0-0.3,0-0.5
	C328,318.1,325.8,315.7,322.9,315.6z M320.8,320.1c-0.8,0-1.5-0.7-1.5-1.5s0.7-1.5,1.5-1.5c0.8,0,1.5,0.7,1.5,1.5
	C322.2,319.4,321.6,320.1,320.8,320.1C320.7,320.1,320.7,320.1,320.8,320.1L320.8,320.1z"/>
<circle class="st11" cx="320.7" cy="318.6" r="1.5"/>
<path class="st6" d="M315.5,308.1c8.6-4.5,12.3,0.7,14.7-0.5c1.4-0.7,0-6.5-8-6.5C313,301.1,313.9,308.9,315.5,308.1z"/>
<path class="st9" d="M300,343.2c6.4,0,7.8-3.4,7.8-5.1c0-1.8-2.9,1.9-7.8,1.9s-7.8-3.7-7.8-1.9C292.2,339.9,293.6,343.2,300,343.2z"
	/>
<path class="st9" d="M302.7,355.6c0-0.6-1,0.7-2.7,0.7s-2.7-1.3-2.7-0.7c0,0.6,0.5,1.8,2.7,1.8S302.7,356.2,302.7,355.6z"/>
<path class="st5" d="M312.4,349.4c0-0.8-4.7,2.4-12.4,2.4s-12.4-3.2-12.4-2.4s2.2,3.9,12.4,3.9S312.4,350.2,312.4,349.4z"/>
<path class="st12" d="M282.7,377.7c1.9-0.5,3.7-0.8,5.6-1.1l0,0c-23.4,3.9-45.4,18.3-45.4,28.6h3.8c18.6-3.9,36.6-10.4,53.4-19.2v0
	C293.3,385.8,287,382.8,282.7,377.7z"/>
<path class="st12" d="M315,377.2L315,377.2l-0.8-0.1L315,377.2z"/>
<path class="st12" d="M312,376.6l1.3,0.2L312,376.6z"/>
<path class="st12" d="M300,385.9l0.1-0.1L300,385.9L300,385.9L300,385.9z"/>
<path class="st13" d="M313.2,376.8l-1.3-0.2h-0.2l0,0c0,0-3.5,4.3-11.8,4.3s-11.7-4.1-11.8-4.3c-1.9,0.3-3.8,0.7-5.6,1.1
	c4.3,5.1,10.7,8.1,17.4,8.2h0.1c5.1-2.7,10.1-5.6,14.9-8.7l-0.8-0.1L313.2,376.8z"/>
<path class="st3" d="M288.3,376.6c0.1,0.1,3.5,4.3,11.8,4.3s11.7-4.2,11.8-4.3l0,0C311.8,376.6,299.6,372.1,288.3,376.6L288.3,376.6
	L288.3,376.6z"/>
<path class="st14" d="M255.9,329.2L255.9,329.2c3.3-1.5,1.6-15.1,2-18.2s3.5-17.3,24.9-15.2c13.4,1.1,26.9-0.8,39.4-5.6
	c0,0,7.3,9.2,12,10.9c9.5,3.5,6.4,26.9,10.2,26.9l0,0c1.3,0,4.4-6.5,6.6-15.5c4.2-17,5.5-42.8-13.4-50.9c0,0-16.9-21.5-52.1-13.4
	c-35.2,8.1-37.8,29.3-36.8,49.9c0.3,5.3,0.7,10,1.1,14C251.2,323.9,253.4,330.4,255.9,329.2z"/>
<path class="st9" d="M205.5,189.1c-5.7,0-9.1-6.1-9.1-3.1c0,3,1.6,8.6,9.1,8.6s9.1-5.6,9.1-8.6S211.2,189.1,205.5,189.1z"/>
<path class="st6" d="M253.6,155.8c1.9,1,4.5-5.3-7.3-7.1c-10.2-1.5-13,3-11.4,3.9C237.7,154.1,243.4,150.5,253.6,155.8z"/>
<path class="st6" d="M175.4,153.9c2.1,0.3,1.9-6.4-9.8-4.1c-10.1,1.9-10.9,7-9,7.3C159.8,157.4,163.7,152.2,175.4,153.9z"/>
</svg>
