<svg id="Layer_4" data-name="Layer 4" xmlns="http://www.w3.org/2000/svg" xmlns:xlink="http://www.w3.org/1999/xlink" viewBox="0 0 712.41 476.35"><defs><style>.cls-1,.cls-2{fill:none;}.cls-2{clip-path:url(#clip-path);}.cls-3{fill:#00dccd;}.cls-4{fill:#fcc592;}.cls-5{fill:#ff7b88;}.cls-6{fill:#fdcc9b;}.cls-7{fill:#464655;}.cls-8{fill:#f7945e;}.cls-9{fill:#51362a;}.cls-10{fill:#d76473;}.cls-11{fill:#fcbc85;}.cls-12{fill:#3b2519;}.cls-13{fill:#fff;}.cls-14{fill:#f7941e;}.cls-15{fill:#f36c21;}.cls-16{fill:#4f3226;}.cls-17{clip-path:url(#clip-path-2);}.cls-18{fill:#d96e27;}</style><clipPath id="clip-path"><path class="cls-1" d="M784.81,0"/></clipPath><clipPath id="clip-path-2" transform="translate(-72.1 -0.86)"><path class="cls-2" d="M667,0"/></clipPath></defs><title>personal-pack</title><path class="cls-3" d="M267.73,477l-2.05-.1,2.05,0.1h0Zm0,0" transform="translate(-72.1 -0.86)"/><path class="cls-3" d="M221.39,469.59l-1.72-.5,1.72,0.5h0Zm0,0" transform="translate(-72.1 -0.86)"/><path class="cls-3" d="M272.26,477.15l-1.62,0,1.62,0h0Zm0,0" transform="translate(-72.1 -0.86)"/><path class="cls-3" d="M225.7,470.75l-0.12,0a204.35,204.35,0,0,0,38.58,6.08,203.73,203.73,0,0,1-38.46-6.13v0.08Zm0,0" transform="translate(-72.1 -0.86)"/><path class="cls-3" d="M217.18,468.35l-2.17-.67,2.17,0.67h0Zm0,0" transform="translate(-72.1 -0.86)"/><path class="cls-3" d="M281.54,477.15l1.62,0-1.62,0h0Zm0,0" transform="translate(-72.1 -0.86)"/><path class="cls-3" d="M288.13,476.9l-2.05.1,2.05-.1h0Zm0,0" transform="translate(-72.1 -0.86)"/><path class="cls-3" d="M196.45,409.92l-10.17-4.07,2.07-33.06a21.94,21.94,0,0,1,12.09-18.26l31.63-15.82,18.85-9.43a7.3,7.3,0,0,0,4-6.54V312.63l-30.72-15.36,1.47,26.33-43.89-7.32s-1.83-77.41,6-118.06c8.65-45.08,38.81-74.85,81-78.68h0c2.64-.24,5.29-0.35,7.94-0.36h0.19c2.65,0,5.3.12,7.94,0.36,42.18,3.84,72.33,33.61,81,78.69,7.8,40.65,6,118.06,6,118.06l-43.88,7.32,1.46-26.23-30.53,15.26v10.11a7.31,7.31,0,0,0,4,6.54l18.86,9.43,31.63,15.82a21.94,21.94,0,0,1,12.09,18.26l2.07,33.06-10.17,4.07v50.86q-8.25,3.53-16.86,6.35c82-26.75,141.2-103.81,141.2-194.72,0-113.11-91.7-204.8-204.8-204.8S72.1,159.3,72.1,272.41c0,90.9,59.23,168,141.2,194.72q-8.6-2.82-16.86-6.35V409.92Zm0,0" transform="translate(-72.1 -0.86)"/><path class="cls-3" d="M328.1,470.67a204.07,204.07,0,0,1-38.46,6.13,204.69,204.69,0,0,0,38.58-6.08l-0.13,0v-0.09Zm0,0" transform="translate(-72.1 -0.86)"/><path class="cls-3" d="M334.14,469.09l-1.72.5,1.72-.5h0Zm0,0" transform="translate(-72.1 -0.86)"/><path class="cls-3" d="M338.79,467.68l-2.17.67,2.17-.67h0Zm0,0" transform="translate(-72.1 -0.86)"/><path class="cls-4" d="M225.7,470.67q-3.69-1-7.32-2V418.69l-21.94-8.78v50.86q8.25,3.53,16.86,6.35l1.71,0.55,2.17,0.67,2.49,0.74,1.72,0.5c1.39,0.39,2.79.77,4.19,1.13l0.13,0v-0.09Zm0,0" transform="translate(-72.1 -0.86)"/><path class="cls-4" d="M357.36,409.92l-21.95,8.78v49.94q-3.63,1.08-7.31,2v0.08l0.13,0q2.1-.54,4.19-1.13l1.72-.5,2.49-.74,2.17-.67,1.71-.55q8.6-2.82,16.86-6.35V409.91h0Zm0,0" transform="translate(-72.1 -0.86)"/><path class="cls-5" d="M286.07,477l2.05-.1,1.52-.09a204.07,204.07,0,0,0,38.46-6.13q3.69-1,7.31-2-3.63,1.08-7.31,2V403.88a32.72,32.72,0,0,1,9.64-23.28l21.54-21.54a21.66,21.66,0,0,1,4.15,6.19l-20.52,20.52a25.43,25.43,0,0,0-7.5,18.1v14.81l21.95-8.78,10.17-4.07-2.07-33.06a22,22,0,0,0-12.09-18.26l-31.63-15.82,12,6a58.44,58.44,0,0,1-113.63,0l12-6-31.63,15.82a22,22,0,0,0-12.09,18.26l-2.07,33.06,10.17,4.07,21.94,8.78V403.88a25.43,25.43,0,0,0-7.5-18.1l-20.52-20.52a21.68,21.68,0,0,1,4.15-6.19l21.53,21.54a32.71,32.71,0,0,1,9.64,23.28v66.79q-3.69-.95-7.31-2,3.63,1.08,7.31,2a204.05,204.05,0,0,0,38.46,6.13l1.52,0.09,2.05,0.1,2.91,0.11,1.62,0c1.54,0,3.09.06,4.64,0.06s3.1,0,4.64-.06l1.62,0,2.91-.11h0Zm0,0" transform="translate(-72.1 -0.86)"/><path class="cls-4" d="M298.84,322.74V312.63L290,317.06a29.27,29.27,0,0,1-26.17,0L255,312.63v10.11a7.31,7.31,0,0,1-4,6.54l-18.85,9.43-12,6a58.45,58.45,0,0,0,113.63,0l-12-6-18.86-9.43a7.31,7.31,0,0,1-4-6.54h0Zm0,0" transform="translate(-72.1 -0.86)"/><path class="cls-6" d="M290,317.06l8.86-4.43,30.53-15.26,5.79-104.28c-12.16,5.12-34,12.3-72.89,20.8l7.31-14.63S243.34,211.8,220,221.8l4.2,75.48,39.58,19.79a29.26,29.26,0,0,0,26.17,0h0Zm23.49-88.54a7.32,7.32,0,0,1,7.32,7.31v7.32a7.31,7.31,0,0,1-14.63,0v-7.32a7.31,7.31,0,0,1,7.31-7.31h0Zm-65.83,14.63a7.31,7.31,0,0,1-14.63,0v-7.32a7.31,7.31,0,0,1,14.63,0v7.32Zm6.08,35.1a7.31,7.31,0,0,1,9.82-3.23c7.36,3.7,19.34,3.7,26.7,0a7.31,7.31,0,1,1,6.59,13.06,47,47,0,0,1-39.87,0,7.32,7.32,0,0,1-3.24-9.82h0Zm0,0" transform="translate(-72.1 -0.86)"/><path class="cls-7" d="M240.33,228.52a7.31,7.31,0,0,0-7.32,7.31v7.32a7.31,7.31,0,0,0,14.63,0v-7.32a7.31,7.31,0,0,0-7.31-7.31h0Zm0,0" transform="translate(-72.1 -0.86)"/><path class="cls-7" d="M313.47,250.46a7.32,7.32,0,0,0,7.32-7.31v-7.32a7.31,7.31,0,0,0-14.63,0v7.32a7.31,7.31,0,0,0,7.31,7.31h0Zm0,0" transform="translate(-72.1 -0.86)"/><path class="cls-8" d="M257,288.08a47,47,0,0,0,39.87,0A7.31,7.31,0,1,0,290.25,275c-7.36,3.7-19.34,3.7-26.7,0A7.31,7.31,0,1,0,257,288.08h0Zm0,0" transform="translate(-72.1 -0.86)"/><path class="cls-9" d="M220,221.8c23.29-10,49.54-22.54,49.54-22.54l-7.31,14.63c38.91-8.5,60.73-15.68,72.89-20.8l-5.79,104.28-1.46,26.23,43.89-7.31s1.83-77.41-6-118.06c-8.65-45.08-38.8-74.85-81-78.69h0c-2.64-.24-5.29-0.35-7.94-0.36h-0.19c-2.65,0-5.3.12-7.94,0.36h0c-42.18,3.84-72.33,33.61-81,78.69-7.8,40.65-6,118.06-6,118.06l43.89,7.31-1.47-26.33Zm0,0" transform="translate(-72.1 -0.86)"/><path class="cls-10" d="M335.41,403.88a25.45,25.45,0,0,1,7.5-18.11l20.52-20.52a21.69,21.69,0,0,0-4.15-6.19L337.74,380.6a32.7,32.7,0,0,0-9.64,23.28v66.79q3.69-1,7.31-2V403.88Zm0,0" transform="translate(-72.1 -0.86)"/><path class="cls-10" d="M225.7,470.67V403.88a32.71,32.71,0,0,0-9.64-23.28l-21.54-21.54a21.82,21.82,0,0,0-4.15,6.19l20.52,20.52a25.43,25.43,0,0,1,7.5,18.1v64.75q3.63,1.08,7.32,2h0Zm0,0" transform="translate(-72.1 -0.86)"/><path class="cls-1" d="M318.73,472.78H315c0-10.27,22.06-24.67,45.38-28.6h0v-8.5h0c-18.56-3.85-27-17-30.82-31.34a10.14,10.14,0,0,1-3.09.49c-6.34,0-11.47-5.86-11.47-13.09a13.26,13.26,0,0,1,6.9-12c-0.48-4.07-.87-8.78-1.14-14-1.06-20.59,1.58-41.75,36.77-49.87s52.12,13.4,52.12,13.4c18.88,8.06,17.62,33.91,13.43,50.89a13.4,13.4,0,0,1,6.2,11.62c0,7.23-5.14,13.09-11.47,13.09a10.14,10.14,0,0,1-3.09-.49c-3.81,14.33-12.26,27.49-30.82,31.34v8.52l0.2,0,1.27,0.22,1,0.21,0.76,0.15a204.48,204.48,0,0,0,94.25-172.34c0-113-91.62-204.64-204.64-204.64S72.1,159.43,72.1,272.45,163.72,477.1,276.75,477.1A205.49,205.49,0,0,0,318.73,472.78Z" transform="translate(-72.1 -0.86)"/><polygon class="cls-6" points="288.26 443.32 288.26 443.32 288.27 443.32 288.26 443.32"/><path class="cls-6" d="M383.88,444.17h0v-8.52h0v4.85a39.48,39.48,0,0,1-23.52-4.84v8.5C371.68,439.73,383.88,444.17,383.88,444.17Z" transform="translate(-72.1 -0.86)"/><path class="cls-11" d="M383.88,440.51v-4.85a61.36,61.36,0,0,1-23.52,0h0A39.48,39.48,0,0,0,383.88,440.51Z" transform="translate(-72.1 -0.86)"/><path class="cls-11" d="M321.87,379.72a13.26,13.26,0,0,0-6.9,12c0,7.23,5.14,13.09,11.47,13.09a10.14,10.14,0,0,0,3.09-.49c-0.66-2.47-1.18-5-1.59-7.47C325.47,398,323.27,391.56,321.87,379.72Z" transform="translate(-72.1 -0.86)"/><path class="cls-11" d="M416.48,395.66a80.32,80.32,0,0,1-1.78,8.67,10.14,10.14,0,0,0,3.09.49c6.34,0,11.47-5.86,11.47-13.09a13.4,13.4,0,0,0-6.2-11.62C420.83,389.12,417.78,395.64,416.48,395.66Z" transform="translate(-72.1 -0.86)"/><path class="cls-6" d="M383.88,435.66h0c18.56-3.85,27-17,30.82-31.34a80.32,80.32,0,0,0,1.78-8.67h0c-3.74,0-.61-23.43-10.16-26.94-4.78-1.76-12-10.93-12-10.93a88.59,88.59,0,0,1-39.44,5.64c-21.4-2.12-24.58,12.07-24.93,15.2s1.38,16.73-2,18.22h0c0.41,2.5.93,5,1.59,7.47,3.81,14.33,12.26,27.49,30.82,31.34A61.36,61.36,0,0,0,383.88,435.66Zm-14.46-12.48c0-.61,1,0.65,2.7.65s2.7-1.26,2.7-.65-0.48,1.77-2.7,1.77S369.42,423.79,369.42,423.18ZM395,394a5.43,5.43,0,1,1,4.94-5.41A5.19,5.19,0,0,1,395,394Zm-0.68-25.28c8,0,9.38,5.76,8,6.46-2.34,1.17-6.09-4-14.67.5C386,376.5,385.08,368.72,394.27,368.72Zm-22.16,38.9c4.88,0,7.82-3.65,7.82-1.88s-1.41,5.11-7.82,5.11-7.82-3.35-7.82-5.11S367.24,407.61,372.12,407.61ZM349.9,394a5.43,5.43,0,1,1,4.94-5.41A5.19,5.19,0,0,1,349.9,394Zm6.77-18.32c-8.58-4.46-12.33.67-14.67-.5-1.41-.7,0-6.46,8-6.46C359.17,368.72,358.23,376.5,356.67,375.68Zm3.06,41.3c0-.8,4.66,2.35,12.4,2.35s12.39-3.15,12.39-2.35-2.23,3.94-12.39,3.94S359.72,417.78,359.72,417Z" transform="translate(-72.1 -0.86)"/><path class="cls-12" d="M349.9,383.18a5.43,5.43,0,1,0,4.94,5.41A5.19,5.19,0,0,0,349.9,383.18Zm-2.15,4.5a1.48,1.48,0,1,1,1.48-1.48A1.48,1.48,0,0,1,347.75,387.68Z" transform="translate(-72.1 -0.86)"/><circle class="cls-13" cx="275.65" cy="385.35" r="1.48"/><path class="cls-9" d="M350,368.72c-8,0-9.38,5.76-8,6.46,2.33,1.17,6.08-4,14.67.5C358.23,376.5,359.17,368.72,350,368.72Z" transform="translate(-72.1 -0.86)"/><path class="cls-12" d="M395,383.18a5.43,5.43,0,1,0,4.94,5.41A5.19,5.19,0,0,0,395,383.18Zm-2.15,4.5a1.48,1.48,0,1,1,1.48-1.48A1.48,1.48,0,0,1,392.8,387.68Z" transform="translate(-72.1 -0.86)"/><circle class="cls-13" cx="320.7" cy="385.35" r="1.48"/><path class="cls-9" d="M387.57,375.68c8.58-4.46,12.33.67,14.67-.5,1.41-.7,0-6.46-8-6.46C385.08,368.72,386,376.5,387.57,375.68Z" transform="translate(-72.1 -0.86)"/><path class="cls-11" d="M372.12,410.85c6.41,0,7.82-3.35,7.82-5.11s-2.94,1.88-7.82,1.88-7.82-3.65-7.82-1.88S365.71,410.85,372.12,410.85Z" transform="translate(-72.1 -0.86)"/><path class="cls-11" d="M374.82,423.18c0-.61-1,0.65-2.7.65s-2.7-1.26-2.7-.65,0.49,1.77,2.7,1.77S374.82,423.79,374.82,423.18Z" transform="translate(-72.1 -0.86)"/><path class="cls-8" d="M384.51,417c0-.8-4.66,2.35-12.39,2.35s-12.4-3.15-12.4-2.35,2.24,3.94,12.4,3.94S384.51,417.78,384.51,417Z" transform="translate(-72.1 -0.86)"/><path class="cls-14" d="M354.77,445.32c1.85-.45,3.72-0.82,5.6-1.14h0C337,448.11,315,462.51,315,472.78h3.75a203.19,203.19,0,0,0,53.39-19.23v-0.05A23.27,23.27,0,0,1,354.77,445.32Z" transform="translate(-72.1 -0.86)"/><path class="cls-14" d="M387.14,444.8h0l-0.76-.15Z" transform="translate(-72.1 -0.86)"/><path class="cls-14" d="M384.08,444.21l1.27,0.22Z" transform="translate(-72.1 -0.86)"/><path class="cls-14" d="M372.12,453.54l0.11-.06h-0.11v0.05Z" transform="translate(-72.1 -0.86)"/><path class="cls-15" d="M385.35,444.44l-1.27-.22-0.2,0h0c0,0.05-3.49,4.26-11.75,4.26s-11.66-4.14-11.75-4.26c-1.88.32-3.75,0.7-5.6,1.14a23.27,23.27,0,0,0,17.35,8.17h0.11q7.65-4,14.91-8.69l-0.75-.15Z" transform="translate(-72.1 -0.86)"/><path class="cls-6" d="M360.37,444.18c0.09,0.11,3.55,4.26,11.75,4.26s11.71-4.21,11.75-4.26h0s-12.2-4.44-23.52,0h0Z" transform="translate(-72.1 -0.86)"/><path class="cls-16" d="M328,396.86h0c3.34-1.49,1.6-15.09,2-18.22s3.53-17.32,24.93-15.2a88.59,88.59,0,0,0,39.44-5.64s7.26,9.18,12,10.93c9.55,3.51,6.41,26.94,10.16,26.94h0c1.3,0,4.35-6.53,6.58-15.55,4.19-17,5.45-42.83-13.43-50.89,0,0-16.93-21.52-52.12-13.4s-37.83,29.28-36.77,49.87c0.27,5.27.66,10,1.14,14C323.27,391.56,325.47,398,328,396.86Z" transform="translate(-72.1 -0.86)"/><g class="cls-17"><path class="cls-18" d="M784.5,2.62c0.64-6.35-25.87,6.7-55.38,3.53" transform="translate(-72.1 -0.86)"/></g><path class="cls-11" d="M277.6,256.69c-5.68,0-9.1-6.11-9.1-3.15s1.64,8.58,9.1,8.58,9.1-5.62,9.1-8.58S283.28,256.69,277.6,256.69Z" transform="translate(-72.1 -0.86)"/><path class="cls-9" d="M325.66,223.47c1.85,1,4.47-5.32-7.28-7.05-10.17-1.5-13,3-11.35,3.87C309.8,221.7,315.52,218.14,325.66,223.47Z" transform="translate(-72.1 -0.86)"/><path class="cls-9" d="M247.49,221.49c2.14,0.3,1.92-6.37-9.77-4.14-10.12,1.93-10.88,7-9,7.28C231.94,225,235.78,219.87,247.49,221.49Z" transform="translate(-72.1 -0.86)"/></svg>