<svg id="Layer_1" data-name="Layer 1" xmlns="http://www.w3.org/2000/svg" viewBox="0 0 1078.25 1917.82"><defs><style>.cls-1{font-size:200px;fill:#cecece;font-family:Ubuntu;}.cls-2{letter-spacing:-4px;}.cls-3{letter-spacing:-2px;}.cls-4{font-size:120px;}.cls-5,.cls-8{fill:none;}.cls-6{fill:#2095bf;}.cls-7{fill:#f4f4f4;}.cls-8{stroke:#f4f4f4;stroke-linecap:round;stroke-linejoin:round;stroke-width:0;}</style></defs><title>welcome-3</title><text class="cls-1" transform="translate(92.3 507.24)"><tspan class="cls-2">W</tspan><tspan x="181.4" y="0">el</tspan><tspan class="cls-3" x="347.8" y="0">c</tspan><tspan x="438.2" y="0">ome!</tspan><tspan class="cls-4"><tspan class="cls-2" x="123.64" y="585.6">T</tspan><tspan x="185.32" y="585.6">ap the plus </tspan><tspan x="87.1" y="729.6">button to get </tspan><tspan x="238.3" y="873.6">started!</tspan></tspan></text><path class="cls-5" d="M48.27,827.54s18-16.81-7.36-59.08l-15.12,9.37S49.05,813,48.27,827.54Z"/><path class="cls-5" d="M1074.43,664.71L1056,691.37l-9.94-30.85-31-9.3,26.27-19-0.75-32.4,26.18,19.12,11.55-4V121l-34.86,14.24-3.84-9.39L1013,136.72s-14.78-23-11.13-50.93a64.85,64.85,0,0,1,2.45-11.08c3.72-11.92,11.28-24.27,25.12-35.8a0.06,0.06,0,0,1,0,0l1.62-1.3c3.69-3.51,11.6-14.32,2.18-37.38A66.11,66.11,0,0,1,1012.85,0H423.07c1.28,7.22,1,15.6-1.89,25.23a0,0,0,0,1,0,0l-0.43,1.36c-0.78,3.41-1.2,12.61,13,22.23,0,0,14-13.29,27.72-9.42L467,31.28l6.6,4.49,6.31-9.29L480,26.56l0,0h0l2.9,2A536,536,0,0,1,453.1,78.06a535.73,535.73,0,0,1-35,46l-2.9-2L415.1,122h0l0,0,0,0L415,122l6.31-9.29-6.6-4.49,5.54-8.15c-8.66-11.33-1.46-29.24-1.46-29.24-14.17-9.62-22.56-5.84-25.45-3.86l-1.11.9,0,0c-9.72,7.66-19.11,11-27.66,11.79a44.51,44.51,0,0,1-7.8.07C337.47,78.19,324.1,65,324.1,65l11.06-16.29-5.77-3.92L353,10,359.8,0H0V771.5L18.48,760l5.34,8.61,24.3-15.06s18.37,20.21,19.4,48.3a64.75,64.75,0,0,1-.58,11.32c-1.68,12.35-7.08,25.77-18.79,39.42a0.06,0.06,0,0,1,0,0l-1.38,1.55c-3,4.07-9,16,4.05,37.17,0,0,26.43-9.36,42.34,3.91l12.17-7.54,6.11,9.86L125.28,889l0.11,0.18,0,0h0l0,0,2.66,4.29a778.51,778.51,0,0,1-68.86,48C39.41,953.89,19.58,964.89,0,974.76V1836.9l1.09,1.88,41.7,3.12L15,1873.09l9.92,40.62L0,1902.77v15H680.2l8.24-15.23-34.8-68.15,75.26,13.83L783,1794.11,793.07,1870l68.21,34.68-27.53,13.18h244.5V1707.45a100.1,100.1,0,0,1-13.95,7.52,97.16,97.16,0,0,1-16.11,5.49c-41,10.11-77.8-8.1-77.8-8.1L982.12,1671l-14.64-4.16,25-88.1,25-88.11,14.64,4.16,11.73-41.33a125.26,125.26,0,0,1,34.4,9.64V664.72h-3.82ZM210.14,766.34l-0.05.05Zm-99.26-553-6,40.62-28.6-29.46-40.48,6.86L55,195.07,36,158.69l40.45,7,28.72-29.34L111,177l36.78,18.24Zm-7.73,1138.39,12.2-12.81-3.63-17.32,16,7.65,15.35-8.81L140.68,1338l13.12,11.87-17.4,3.19-7.24,16.15-8.41-15.57Zm60.57,509.19h0Zm143-58.38v0Zm-45.45-21.66a717.09,717.09,0,0,1-73.08,25.31l-1.78-4.35,0,0,0-.07,0,0.07-0.05-.13,0,0v0l13.91-5.68-4-9.89,12.21-5c-1.27-19.05,20-33.68,20-33.68-8.67-21.22-20.83-23.22-25.51-23.15l-1.9.19h0c-16.52,1.34-29.44-1.9-39.57-7.34a59.58,59.58,0,0,1-8.74-5.7c-20.39-16-25.5-40.63-25.5-40.63l24.39-10-3.53-8.64,52-21.24,52-21.24,3.53,8.64,24.39-10s13.6,21.17,10.24,46.86a59.66,59.66,0,0,1-2.26,10.2c-3.42,11-10.38,22.34-23.11,32.94l0,0-1.49,1.2c-3.39,3.23-10.67,13.17-2,34.39,0,0,25.44-4.46,37.88,10l12.21-5,4,9.89,13.91-5.68,0.07,0.18,0,0.06h0l1.77,4.33A717.37,717.37,0,0,1,261.29,1780.89ZM509.65,888.76a3.75,3.75,0,0,1-3.75,3.75h0a3.75,3.75,0,0,1-3.75-3.75V784.69H398.08a3.75,3.75,0,0,1-3.75-3.75h0a3.75,3.75,0,0,1,3.75-3.75H502.16V673.11a3.75,3.75,0,0,1,3.75-3.75h0a3.75,3.75,0,0,1,3.75,3.75V777.19H613.73a3.75,3.75,0,0,1,3.75,3.75h0a3.75,3.75,0,0,1-3.75,3.75H509.65V888.76ZM572,1779l-12.24,13.93-3.61-18.19-17-7.34,16.18-9.05,1.72-18.46,13.61,12.59,18.09-4.07-7.77,16.83,9.46,15.94Zm50.71-437.42-6.56-1.37-4.85,4.63-0.72-6.66-5.9-3.18,6.12-2.75,1.2-6.59,4.5,5,6.64-.89-3.33,5.82ZM700,1266.06l-9.56-2-7.07,6.74-1.05-9.71-8.6-4.64,8.91-4,1.75-9.61,6.56,7.24,9.68-1.3-4.86,8.48Zm42.37-941.38-0.05,0,0.05,0,0,0h0Zm27.83,189.43-8.91-1.86-6.59,6.29-1-9.05-8-4.32,8.31-3.73,1.63-9,6.11,6.75,9-1.21-4.53,7.9Zm-8.46-295.87-2.83,19.19-13.51-13.91-19.12,3.24,9.06-17.15-9-17.18,19.11,3.32L759,181.87l2.75,19.2,17.37,8.62Zm29.6,34.45h0Zm71.14,1276.76-22.7-15.15-25.35,10.11,7.4-26.27-17.44-21,27.27-1.08L846.21,1453l9.45,25.6,26.45,6.72-21.42,16.9Zm78.78-664.89h0Zm14.89-34a39.13,39.13,0,0,1-5.77,3.68c-6.67,3.5-15.17,5.54-26,4.56h0l-1.25-.13c-3.07-.08-11.06,1.16-16.88,15,0,0,13.87,9.73,12.91,22.22l8,3.35-2.71,6.46,9.08,3.82,0,0.12v0h0l-1.18,2.81a466.06,466.06,0,0,1-93.4-39.22l1.19-2.84,0.06-.14,9.09,3.82,2.71-6.46,8,3.35c8.25-9.42,24.9-6.33,24.9-6.33,5.82-13.86,1.11-20.43-1.09-22.57l-1-.8,0,0c-8.28-7-12.77-14.54-14.94-21.75a39.07,39.07,0,0,1-1.41-6.7c-2-16.87,7-30.66,7-30.66l15.93,6.69,2.37-5.64,34,14.26,34,14.26-2.37,5.64,15.93,6.69S969.62,820.22,956.15,830.57ZM866.29,833l0,0,0,0,0,0Z"/><path class="cls-5" d="M1043.6,1503s16.7,4.2,34.65,10.63v-25.8a177,177,0,0,0-27.36-10.53Z"/><path class="cls-5" d="M334.53,60.44C362.87,79.08,375,67.2,375,67.2c-10,.12-33.55-16.9-33.55-16.9Z"/><path class="cls-5" d="M18.06,911.68c-6.28-10.13-12.61-15.39-18.06-18V953l2.7-1.67C-2.09,931.18,18.06,911.68,18.06,911.68Z"/><path class="cls-5" d="M1078.25,0h-1.07q0.53,0.66,1.07,1.27V0Z"/><path class="cls-5" d="M157.32,1667.24l-15.17,6.2c17.79,41.77,40.06,37.49,40.06,37.49C170.92,1703.61,157.32,1667.24,157.32,1667.24Z"/><path class="cls-5" d="M268.77,1675.56s18.9-12.53,2.35-54.81l-15.17,6.2S271.71,1662.44,268.77,1675.56Z"/><path class="cls-5" d="M1025.19,63.68s-20.54,13.62-2.56,59.57l16.49-6.73S1022,77.94,1025.19,63.68Z"/><path class="cls-5" d="M880.25,806.33c-1.84-8.62,8.72-31.8,8.72-31.8l-9.91-4.16C867.94,798,880.25,806.33,880.25,806.33Z"/><path class="cls-5" d="M936.78,830.07s14.57,3,26.51-24.32l-9.91-4.16S944.23,825.35,936.78,830.07Z"/><path class="cls-5" d="M988.88,1695.82c71.52,19.15,88.39-13.74,88.39-13.74-20.73,7.14-81.1-12-81.1-12Z"/><path class="cls-5" d="M414.21,9.41s1.49-3.57,0-9.41h-7.56C410.24,3.3,413.15,6.63,414.21,9.41Z"/><path class="cls-6" d="M505.9,890.54a7.2,7.2,0,0,1-7.19-7.19V770.12H385.49a7.19,7.19,0,1,1,0-14.37H498.72V642.52a7.19,7.19,0,0,1,14.37,0V755.75H626.32a7.19,7.19,0,1,1,0,14.37H513.09V883.35A7.2,7.2,0,0,1,505.9,890.54Z"/><path class="cls-6" d="M505.9,638.33a4.19,4.19,0,0,1,4.19,4.19V758.75H626.32a4.19,4.19,0,0,1,4.19,4.19h0a4.19,4.19,0,0,1-4.19,4.19H510.09V883.35a4.19,4.19,0,0,1-4.19,4.19h0a4.19,4.19,0,0,1-4.19-4.19V767.12H385.49a4.19,4.19,0,0,1-4.19-4.19h0a4.19,4.19,0,0,1,4.19-4.19H501.72V642.52a4.19,4.19,0,0,1,4.19-4.19h0m0-6a10.2,10.2,0,0,0-10.19,10.19V752.75H385.49a10.19,10.19,0,0,0,0,20.37H495.72V883.35a10.19,10.19,0,0,0,20.37,0V773.12H626.32a10.19,10.19,0,0,0,0-20.37H516.09V642.52a10.2,10.2,0,0,0-10.19-10.19h0Z"/><polygon class="cls-7" points="588.72 1748.4 570.63 1752.47 557.02 1739.88 555.3 1758.34 539.13 1767.39 556.15 1774.73 559.76 1792.91 572 1778.99 590.41 1781.18 580.95 1765.23 588.72 1748.4"/><polygon class="cls-7" points="855.67 1478.59 846.21 1452.99 831.65 1476.06 804.38 1477.14 821.82 1498.13 814.43 1524.4 839.77 1514.29 862.47 1529.44 860.69 1502.21 882.12 1485.31 855.67 1478.59"/><polygon class="cls-7" points="1040.53 599.82 1041.27 632.23 1015 651.21 1046.05 660.51 1055.99 691.37 1074.43 664.71 1078.25 664.72 1078.25 614.89 1066.7 618.94 1040.53 599.82"/><polygon class="cls-7" points="136.4 1353.05 153.8 1349.86 140.68 1337.99 143.02 1320.45 127.68 1329.26 111.72 1321.61 115.36 1338.93 103.15 1351.74 120.75 1353.63 129.16 1369.2 136.4 1353.05"/><polygon class="cls-7" points="14.95 1873.09 42.79 1841.89 1.09 1838.77 0 1836.9 0 1902.77 24.87 1913.71 14.95 1873.09"/><polygon class="cls-7" points="793.07 1869.96 782.96 1794.11 728.9 1848.27 653.64 1834.44 688.44 1902.59 680.2 1917.82 833.75 1917.82 861.28 1904.64 793.07 1869.96"/><polygon class="cls-7" points="696.03 634.3 689.91 627.55 688.28 636.51 679.97 640.24 687.98 644.56 688.97 653.61 695.55 647.33 704.47 649.19 700.52 640.99 705.05 633.09 696.03 634.3"/><polygon class="cls-7" points="437.77 946.27 431.21 939.03 429.45 948.64 420.55 952.64 429.14 957.28 430.19 966.99 437.26 960.25 446.82 962.25 442.6 953.44 447.45 944.97 437.77 946.27"/><polygon class="cls-7" points="759.01 181.87 745.45 195.73 726.34 192.42 735.33 209.6 726.27 226.75 745.39 223.51 758.9 237.42 761.73 218.23 779.13 209.69 761.76 201.07 759.01 181.87"/><path class="cls-7" d="M866.31,833l0,0Z"/><line class="cls-8" x1="933.44" y1="889.67" x2="933.43" y2="889.67"/><path class="cls-7" d="M959.57,791.76l-34-14.26-34-14.26-2.37,5.64-15.93-6.69s-9.06,13.8-7,30.66a39.07,39.07,0,0,0,1.41,6.7c2.17,7.22,6.66,14.71,14.94,21.75l0,0,1,0.8c2.21,2.14,6.92,8.71,1.09,22.57,0,0-16.66-3.09-24.9,6.33l-8-3.35-2.71,6.46-9.09-3.82-0.06.14-1.19,2.84a466.06,466.06,0,0,0,93.4,39.22l1.18-2.81h0v0l0-.12-9.08-3.82,2.71-6.46-8-3.35c1-12.48-12.91-22.22-12.91-22.22,5.82-13.86,13.81-15.09,16.88-15l1.25,0.13h0c10.82,1,19.32-1.06,26-4.56a39.13,39.13,0,0,0,5.77-3.68c13.47-10.35,17-26.48,17-26.48L957.2,797.4Zm-79.32,14.57s-12.31-8.34-1.19-36l9.91,4.16S878.4,797.71,880.25,806.33Zm83-.58c-11.93,27.28-26.51,24.32-26.51,24.32,7.45-4.72,16.6-28.49,16.6-28.49Z"/><path class="cls-7" d="M866.31,833l0,0Z"/><line class="cls-8" x1="941.26" y1="864.54" x2="941.25" y2="864.55"/><polygon class="cls-7" points="110.95 177.01 105.13 136.37 76.41 165.71 35.96 158.69 54.99 195.07 35.81 231.38 76.29 224.51 104.89 253.97 110.88 213.35 147.74 195.25 110.95 177.01"/><path class="cls-8" d="M306.75,1802.58v0"/><path class="cls-8" d="M186.35,1801.67v0"/><path class="cls-7" d="M329.44,1743.47l0-.06-0.07-.18-13.91,5.68-4-9.89-12.21,5c-12.44-14.49-37.88-10-37.88-10-8.67-21.22-1.39-31.16,2-34.39l1.49-1.2,0,0c12.73-10.61,19.69-22,23.11-32.94a59.66,59.66,0,0,0,2.26-10.2c3.36-25.69-10.24-46.86-10.24-46.86l-24.39,10-3.53-8.64-52,21.24-52,21.24,3.53,8.64-24.39,10s5.11,24.64,25.5,40.63a59.58,59.58,0,0,0,8.74,5.7c10.12,5.44,23.05,8.68,39.57,7.34h0l1.9-.19c4.69-.07,16.84,1.93,25.51,23.15,0,0-21.29,14.63-20,33.68l-12.21,5,4,9.89-13.91,5.68,0,0,0.05,0.13,0-.07,0,0.07,0,0,1.78,4.35a717.09,717.09,0,0,0,73.08-25.31,717.37,717.37,0,0,0,69.92-33.11l-1.77-4.33h0Zm-187.29-70,15.17-6.2s13.6,36.37,24.89,43.68C182.21,1710.92,159.95,1715.2,142.15,1673.43Zm129-52.68c16.55,42.28-2.35,54.81-2.35,54.81,2.94-13.12-12.82-48.61-12.82-48.61Z"/><path class="cls-7" d="M163.72,1860.93h0Z"/><path class="cls-7" d="M1032.12,1494.82l-14.64-4.16-25,88.11-25,88.1,14.64,4.16-11.73,41.33s36.77,18.21,77.8,8.1a97.16,97.16,0,0,0,16.11-5.49,100.1,100.1,0,0,0,13.95-7.52V1513.61c-18-6.43-34.65-10.63-34.65-10.63l7.29-25.71a177,177,0,0,1,27.36,10.53v-24.68a125.26,125.26,0,0,0-34.4-9.64Zm45.15,187.26s-16.88,32.89-88.39,13.74l7.29-25.7S1056.54,1689.22,1077.27,1682.08Z"/><line class="cls-8" x1="125.42" y1="889.25" x2="125.41" y2="889.24"/><path class="cls-7" d="M128.1,893.58l-2.66-4.29,0,0,0,0-0.11-.18-13.86,8.59-6.11-9.86L93.14,895.3C77.23,882,50.8,891.4,50.8,891.4c-13.1-21.15-7.1-33.1-4.05-37.17l1.38-1.55a0.06,0.06,0,0,0,0,0C59.86,839,65.26,825.58,66.94,813.23a64.75,64.75,0,0,0,.58-11.32c-1-28.1-19.4-48.3-19.4-48.3l-24.3,15.06L18.48,760,0,771.5V893.66c5.45,2.64,11.78,7.9,18.06,18,0,0-20.15,19.5-15.36,39.66L0,953v21.75c19.58-9.87,39.41-20.87,59.24-33.16A778.51,778.51,0,0,0,128.1,893.58ZM40.91,768.46c25.33,42.27,7.36,59.08,7.36,59.08,0.78-14.57-22.48-49.71-22.48-49.71Z"/><path class="cls-7" d="M210.09,766.39l0.05-.05Z"/><path class="cls-7" d="M742.35,324.68l0,0h0Z"/><path class="cls-8" d="M791.34,252.7h0"/><path class="cls-7" d="M742.35,324.68l-0.05,0Z"/><path class="cls-7" d="M329.4,44.76l5.77,3.92L324.1,65s13.37,13.23,32.67,14.74a44.51,44.51,0,0,0,7.8-.07c8.55-.8,17.94-4.13,27.66-11.79l0,0,1.11-.9c2.89-2,11.28-5.76,25.45,3.86,0,0-7.2,17.91,1.46,29.24l-5.54,8.15,6.6,4.49L415,122l0.07,0h0l0.07,0.05,2.9,2a535.73,535.73,0,0,0,35-46,536,536,0,0,0,29.83-49.51l-2.9-2h0l0,0-0.12-.08-6.31,9.29L467,31.28l-5.54,8.15c-13.73-3.88-27.72,9.42-27.72,9.42C419.54,39.23,420,30,420.74,26.62l0.43-1.36a0,0,0,0,0,0,0c2.87-9.64,3.17-18,1.89-25.23h-8.83c1.46,5.84,0,9.41,0,9.41-1.07-2.78-4-6.11-7.53-9.41H359.8L353,10Zm5.13,15.68,6.88-10.13s23.5,17,33.55,16.9C375,67.2,362.87,79.08,334.53,60.44Z"/><path class="cls-7" d="M415.11,122l0,0Z"/><path class="cls-7" d="M480,26.58h0Z"/><path class="cls-7" d="M1033.31,0.19c9.42,23.06,1.51,33.87-2.18,37.38l-1.62,1.3a0.06,0.06,0,0,0,0,0c-13.84,11.53-21.4,23.88-25.12,35.8a64.85,64.85,0,0,0-2.45,11.08c-3.66,27.92,11.13,50.93,11.13,50.93l26.51-10.83,3.84,9.39L1078.25,121V1.27q-0.53-.61-1.07-1.27h-64.33A66.11,66.11,0,0,0,1033.31.19Zm-10.68,123.05c-18-46,2.56-59.57,2.56-59.57-3.2,14.26,13.93,52.83,13.93,52.83Z"/><polygon class="cls-7" points="235.91 538.44 230.09 532.02 228.54 540.54 220.63 544.1 228.26 548.21 229.19 556.82 235.46 550.84 243.94 552.61 240.19 544.8 244.5 537.29 235.91 538.44"/></svg>