<svg id="Layer_1" data-name="Layer 1" xmlns="http://www.w3.org/2000/svg" viewBox="0 0 600.83 1026.54"><defs><style>.cls-1,.cls-2{fill:none;}.cls-2{stroke:#c1c1c1;stroke-linecap:round;stroke-miterlimit:10;stroke-width:6px;}.cls-3,.cls-4{fill:#ddd;}.cls-4{font-size:76px;font-family:Ubuntu;}.cls-5{font-size:62px;}.cls-6{letter-spacing:-2px;}.cls-7{fill:#f4f4f4;}</style></defs><title>welcome</title><rect class="cls-1" width="600.83" height="1026.54"/><path class="cls-2" d="M540,202.34" transform="translate(-211.97 -456)"/><path class="cls-3" d="M505.9,931.89a4.32,4.32,0,0,1-4.32-4.32V850.9H424.92a4.32,4.32,0,1,1,0-8.63h76.67V765.6a4.32,4.32,0,0,1,8.63,0v76.67h76.67a4.32,4.32,0,1,1,0,8.63H510.22v76.67A4.32,4.32,0,0,1,505.9,931.89Z" transform="translate(-211.97 -456)"/><path class="cls-3" d="M505.9,762.78a2.82,2.82,0,0,1,2.82,2.82v78.17h78.17a2.82,2.82,0,1,1,0,5.63H508.72v78.17a2.82,2.82,0,0,1-2.82,2.82h0a2.82,2.82,0,0,1-2.82-2.82V849.4H424.92a2.82,2.82,0,0,1,0-5.63h78.17V765.6a2.82,2.82,0,0,1,2.82-2.82h0m0-3a5.82,5.82,0,0,0-5.82,5.82v75.17H424.92a5.82,5.82,0,0,0,0,11.63h75.17v75.17a5.82,5.82,0,0,0,11.63,0V852.4h75.17a5.82,5.82,0,1,0,0-11.63H511.72V765.6a5.82,5.82,0,0,0-5.82-5.82h0Z" transform="translate(-211.97 -456)"/><text class="cls-4" transform="translate(131.7 239.05)">W<tspan x="69.16" y="0">elcome!</tspan><tspan class="cls-5"><tspan class="cls-6" x="1.29" y="372">T</tspan><tspan x="33.16" y="372">ap the plus </tspan><tspan x="36.23" y="446.4">button to </tspan><tspan x="6.71" y="520.8">get started!</tspan></tspan></text><polygon class="cls-7" points="74.16 85.68 85.59 96.26 100.8 92.84 94.27 106.99 102.22 120.39 86.74 118.55 76.46 130.26 73.42 114.97 59.11 108.8 72.71 101.2 74.16 85.68"/><polygon class="cls-7" points="555.93 961.25 569.54 973.84 587.63 969.77 579.86 986.6 589.32 1002.54 570.91 1000.36 558.67 1014.28 555.06 996.1 538.03 988.76 554.21 979.71 555.93 961.25"/><polygon class="cls-7" points="552.21 491.26 564.79 500.45 579.5 495.3 574.65 510.11 584.1 522.5 568.51 522.46 559.65 535.28 554.87 520.44 539.94 515.97 552.57 506.84 552.21 491.26"/><polygon class="cls-7" points="31.18 830.04 47.14 837.69 62.48 828.88 60.14 846.42 73.26 858.29 55.85 861.48 48.62 877.63 40.2 862.06 22.61 860.17 34.82 847.36 31.18 830.04"/><polygon class="cls-7" points="7.19 970.04 29.35 965.22 37.94 944.24 49.37 963.82 71.98 965.52 56.89 982.44 62.27 1004.47 41.51 995.34 22.22 1007.26 24.49 984.7 7.19 970.04"/><polygon class="cls-7" points="12.07 19.85 19.63 20.58 24.52 14.77 26.16 22.18 33.2 25.04 26.66 28.89 26.12 36.47 20.43 31.43 13.06 33.27 16.09 26.3 12.07 19.85"/><polygon class="cls-7" points="363.79 904.15 367.13 929.27 389.72 940.75 366.87 951.69 362.92 976.72 345.46 958.37 320.44 962.36 332.49 940.07 320.97 917.51 345.89 922.09 363.79 904.15"/><polygon class="cls-7" points="533.72 49.16 542.03 45.42 543.66 36.47 549.77 43.21 558.8 42 554.27 49.9 558.21 58.11 549.3 56.24 542.72 62.53 541.73 53.48 533.72 49.16"/><polygon class="cls-7" points="22.64 403.38 31.02 399.62 32.66 390.59 38.83 397.39 47.94 396.17 43.37 404.14 47.35 412.42 38.35 410.54 31.71 416.88 30.72 407.75 22.64 403.38"/><polygon class="cls-7" points="494.58 770.44 503.5 766.44 505.25 756.83 511.81 764.07 521.49 762.76 516.63 771.24 520.86 780.04 511.3 778.05 504.24 784.79 503.18 775.08 494.58 770.44"/><polygon class="cls-7" points="522.28 162.84 541.39 166.16 554.95 152.3 557.7 171.49 575.08 180.11 557.67 188.66 554.84 207.84 541.33 193.93 522.21 197.17 531.27 180.02 522.28 162.84"/><polygon class="cls-7" points="392.71 878.98 398.82 876.23 400.02 869.64 404.53 874.6 411.17 873.71 407.84 879.53 410.74 885.57 404.18 884.2 399.33 888.83 398.61 882.16 392.71 878.98"/></svg>