<?xml version="1.0" encoding="utf-8"?>
<!-- Generator: Adobe Illustrator 19.2.1, SVG Export Plug-In . SVG Version: 6.00 Build 0)  -->
<svg version="1.1" id="Layer_1" xmlns="http://www.w3.org/2000/svg" xmlns:xlink="http://www.w3.org/1999/xlink" x="0px" y="0px"
	 viewBox="0 0 508 508" style="enable-background:new 0 0 508 508;" xml:space="preserve">
<style type="text/css">
	.st0{fill:#E8E8E8;}
	.st1{fill:#FF7058;}
	.st2{fill:#324A5E;}
	.st3{fill:#4CDBC4;}
	.st4{fill:none;}
</style>
<g>
	<rect x="105.8" y="154.5" class="st0" width="292.5" height="236.6"/>
	<path class="st0" d="M96.6,134v266.3c0,3.5,3.1,6.5,6.5,6.5h301.2c3.5,0,6.5-3.1,6.5-6.5V134H96.6z"/>
</g>
<rect x="96.6" y="134" class="st1" width="314.7" height="74.6"/>
<g>
	<path class="st2" d="M163.9,101.2c-6.1,0-10.9,4.8-10.9,10.9v41.5c0,6.1,4.8,10.9,10.9,10.9s11.3-4.8,11.3-10.9v-41
		C175.2,106.5,170,101.2,163.9,101.2z"/>
	<path class="st2" d="M343.7,101.2c-6.1,0-10.9,4.8-10.9,10.9v41.5c0,6.1,4.8,10.9,10.9,10.9c6.1,0,10.9-4.8,10.9-10.9v-41
		C354.6,106.5,349.8,101.2,343.7,101.2z"/>
</g>
<g>
	<rect x="123.3" y="237.8" class="st3" width="32.7" height="32.7"/>
	<rect x="180.4" y="237.8" class="st3" width="32.7" height="32.7"/>
	<rect x="237.6" y="237.8" class="st3" width="32.7" height="32.7"/>
	<rect x="123.3" y="292.4" class="st3" width="32.7" height="32.7"/>
	<rect x="180.4" y="292.4" class="st3" width="32.7" height="32.7"/>
	<rect x="237.6" y="292.4" class="st3" width="32.7" height="32.7"/>
</g>
<rect x="294.8" y="292.4" class="st1" width="32.7" height="32.7"/>
<g>
	<rect x="351.6" y="292.4" class="st3" width="32.7" height="32.7"/>
	<rect x="237.6" y="346.5" class="st3" width="32.7" height="32.7"/>
	<rect x="294.8" y="346.5" class="st3" width="32.7" height="32.7"/>
	<rect x="351.6" y="346.5" class="st3" width="32.7" height="32.7"/>
</g>
<rect class="st4" width="508" height="508"/>
</svg>
