<svg id="Layer_1" data-name="Layer 1" xmlns="http://www.w3.org/2000/svg" viewBox="0 0 178.15 199"><defs><style>.cls-1{fill:#ffba00;}.cls-2{fill:#3f3f3f;}.cls-3{fill:#fff;}</style></defs><title>icon-inv</title><path class="cls-1" d="M153.8,261.4a51.15,51.15,0,1,1,51.1-51.2h0A51.15,51.15,0,0,1,153.8,261.4Z" transform="translate(-72.8 -62.4)"/><path class="cls-2" d="M153.9,154.6a55.35,55.35,0,0,1,33.5,11.2,15.09,15.09,0,0,0-2.4-5.7L137.8,92.3a15,15,0,0,0-12.3-6.4H87.8a15,15,0,0,0-15,15,14.55,14.55,0,0,0,2.7,8.5l41.3,59.2A55.59,55.59,0,0,1,153.9,154.6Z" transform="translate(-72.8 -62.4)"/><path class="cls-3" d="M236,62.4H198.2a14.87,14.87,0,0,0-12.3,6.5l-69.2,99.9a55.64,55.64,0,0,1,74.2,0L248.3,86a15,15,0,0,0-3.9-20.9A13.82,13.82,0,0,0,236,62.4Z" transform="translate(-72.8 -62.4)"/></svg>