<?xml version="1.0" encoding="utf-8"?>
<!-- Generator: Adobe Illustrator 19.2.1, SVG Export Plug-In . SVG Version: 6.00 Build 0)  -->
<svg version="1.1" id="Layer_2" xmlns="http://www.w3.org/2000/svg" xmlns:xlink="http://www.w3.org/1999/xlink" x="0px" y="0px"
	 viewBox="0 0 91.2 99.4" style="enable-background:new 0 0 91.2 99.4;" xml:space="preserve">
<style type="text/css">
	.st0{fill:#FFBA00;}
</style>
<title>medal-outline</title>
<g>
	<path class="st0" d="M45.6,8.5c1.9,0,3.7,0.5,5.3,1.4l26.6,15.3c3.3,1.9,5.3,5.4,5.3,9.2V65c0,3.8-2,7.3-5.3,9.1L50.9,89.5
		c-1.6,0.9-3.4,1.4-5.3,1.4c-1.9,0-3.7-0.5-5.3-1.4L13.8,74.2c-3.3-1.9-5.3-5.4-5.3-9.1V34.4c0-3.8,2-7.3,5.3-9.2L40.3,9.9
		C41.9,9,43.7,8.5,45.6,8.5 M45.6,2.5c-2.9,0-5.7,0.7-8.3,2.2L10.8,20c-5.1,3-8.3,8.4-8.3,14.4V65c0,5.9,3.2,11.4,8.3,14.3
		l26.5,15.3c2.6,1.5,5.4,2.2,8.3,2.2s5.7-0.7,8.3-2.2l26.5-15.3c5.1-3,8.3-8.4,8.3-14.3V34.4c0-5.9-3.2-11.4-8.3-14.4L53.9,4.7
		C51.3,3.2,48.5,2.5,45.6,2.5L45.6,2.5z"/>
</g>
</svg>
