<svg id="Layer_1" data-name="Layer 1" xmlns="http://www.w3.org/2000/svg" viewBox="0 0 1078.25 1571.66"><defs><style>.cls-1{font-size:200px;fill:#cecece;font-family:Ubuntu;}.cls-2{font-size:120px;}.cls-3{letter-spacing:-4px;}.cls-4{letter-spacing:-1px;}.cls-5{fill:none;}.cls-6{fill:#f4f4f4;}.cls-7{fill:#e5a4a1;}</style></defs><title>sorry</title><text class="cls-1" transform="translate(272.1 367.89)">Oops!<tspan class="cls-2"><tspan class="cls-3" x="-131.4" y="580.8">Y</tspan><tspan x="-67.68" y="580.8">our team is</tspan><tspan class="cls-4" x="526.67" y="580.8">n</tspan><tspan x="593.15" y="580.8">’t </tspan><tspan x="-163.13" y="724.8">signed up for an </tspan><tspan x="1.74" y="868.8">upcoming </tspan><tspan x="67.62" y="1012.8">season!</tspan></tspan></text><path class="cls-5" d="M18.06,776.54c-6.28-10.13-12.61-15.39-18.06-18v59.35l2.7-1.67C-2.09,796,18.06,776.54,18.06,776.54Z" transform="translate(0 -4.22)"/><path class="cls-5" d="M48.27,692.4s18-16.81-7.36-59.08l-15.12,9.37S49.05,677.83,48.27,692.4Z" transform="translate(0 -4.22)"/><path class="cls-5" d="M880.25,671.19c-1.84-8.62,8.72-31.8,8.72-31.8l-9.91-4.16C867.94,662.85,880.25,671.19,880.25,671.19Z" transform="translate(0 -4.22)"/><path class="cls-5" d="M953.38,666.45s-9.15,23.76-16.6,28.49c0,0,14.57,3,26.51-24.32Z" transform="translate(0 -4.22)"/><polygon class="cls-6" points="1012.83 1139.97 994.74 1144.04 981.13 1131.44 979.41 1149.91 963.24 1158.96 980.26 1166.29 983.87 1184.48 996.11 1170.55 1014.52 1172.74 1005.06 1156.8 1012.83 1139.97"/><polygon class="cls-6" points="855.67 1339.23 846.21 1313.63 831.65 1336.71 804.38 1337.79 821.82 1358.77 814.43 1385.04 839.77 1374.93 862.47 1390.09 860.69 1362.86 882.12 1345.95 855.67 1339.23"/><polygon class="cls-6" points="1040.53 460.46 1041.27 492.87 1015 511.86 1046.05 521.16 1055.99 552.01 1074.43 525.36 1078.25 525.37 1078.25 475.53 1066.7 479.58 1040.53 460.46"/><polygon class="cls-6" points="143.02 1181.1 127.68 1189.91 111.72 1182.26 115.36 1199.57 103.15 1212.38 120.75 1214.28 129.16 1229.84 136.4 1213.7 153.8 1210.51 140.68 1198.63 143.02 1181.1"/><polygon class="cls-6" points="696.03 494.94 689.91 488.2 688.28 497.15 679.97 500.88 687.98 505.21 688.97 514.26 695.55 507.97 704.47 509.84 700.52 501.63 705.05 493.73 696.03 494.94"/><text y="-4.22"/><polygon class="cls-6" points="711.36 141.4 697.79 155.26 678.69 151.95 687.68 169.13 678.62 186.28 697.74 183.04 711.25 196.95 714.07 177.76 731.48 169.22 714.11 160.6 711.36 141.4"/><path class="cls-6" d="M866.31,697.84l0,0Z" transform="translate(0 -4.22)"/><path class="cls-6" d="M866.31,697.84l0,0Z" transform="translate(0 -4.22)"/><polygon class="cls-6" points="116.51 51.57 87.79 80.91 47.34 73.89 66.37 110.27 47.19 146.58 87.67 139.72 116.28 169.18 122.26 128.56 159.12 110.46 122.33 92.21 116.51 51.57"/><path class="cls-6" d="M210.14,631.2l-0.05.05Z" transform="translate(0 -4.22)"/><path class="cls-6" d="M742.35,189.54l0,0h0Z" transform="translate(0 -4.22)"/><path class="cls-6" d="M742.35,189.54l-0.05,0Z" transform="translate(0 -4.22)"/><polygon class="cls-6" points="64.52 483.05 53.85 471.27 50.99 486.91 36.49 493.42 50.48 500.97 52.2 516.77 63.7 505.8 79.26 509.05 72.38 494.73 80.28 480.93 64.52 483.05"/><polygon class="cls-6" points="1010.42 151.36 1027.72 169.18 1031.34 144.62 1053.62 133.67 1031.38 122.64 1027.86 98.06 1010.49 115.81 986.03 111.56 997.54 133.56 985.95 155.51 1010.42 151.36"/><polygon class="cls-6" points="304.61 1507.66 301.61 1473.44 276.28 1496.64 242.81 1488.92 257.04 1520.18 239.36 1549.63 273.49 1545.75 296.03 1571.66 302.89 1538.01 334.5 1524.58 304.61 1507.66"/><polygon class="cls-6" points="623.19 6.75 617.07 0 615.44 8.96 607.13 12.69 615.15 17.01 616.13 26.06 622.72 19.78 631.63 21.64 627.68 13.43 632.21 5.53 623.19 6.75"/><polygon class="cls-6" points="947.17 1529.79 940.61 1522.55 938.85 1532.16 929.94 1536.16 938.54 1540.8 939.59 1550.51 946.66 1543.77 956.22 1545.77 951.99 1536.96 956.85 1528.49 947.17 1529.79"/><path class="cls-7" d="M540,505.44A147.77,147.77,0,1,0,687.77,653.21,147.77,147.77,0,0,0,540,505.44ZM443.86,621.35A29.12,29.12,0,1,1,473,650.47,29.12,29.12,0,0,1,443.86,621.35ZM543.8,722.24c-42.77,0-77.43,8.94-77.43,0S501,706.06,543.8,706.06s77.43,7.24,77.43,16.18S586.56,722.24,543.8,722.24Zm57.12-71.77A29.12,29.12,0,1,1,630,621.35,29.12,29.12,0,0,1,600.92,650.47Z" transform="translate(0 -4.22)"/></svg>