<?xml version="1.0" encoding="utf-8"?>
<!-- Generator: Adobe Illustrator 19.2.1, SVG Export Plug-In . SVG Version: 6.00 Build 0)  -->
<svg version="1.1" id="Capa_1" xmlns="http://www.w3.org/2000/svg" xmlns:xlink="http://www.w3.org/1999/xlink" x="0px" y="0px"
	 viewBox="0 0 57.2 57.2" style="enable-background:new 0 0 57.2 57.2;" xml:space="preserve">
<style type="text/css">
	.st0{fill:none;}
	.st1{fill:#E0E1E2;}
	.st2{fill:#FFFFFF;}
	.st3{fill:#26B99A;}
	.st4{fill:#424A60;}
</style>
<rect class="st0" width="57.2" height="57.2"/>
<g>
	<circle class="st1" cx="28.6" cy="28.6" r="20.4"/>
	<circle class="st2" cx="28.6" cy="28.6" r="11.8"/>
	<path class="st3" d="M28.6,50.6c-12.1,0-22-9.9-22-22s9.9-22,22-22s22,9.9,22,22S40.7,50.6,28.6,50.6z M28.6,9.7
		c-10.4,0-18.9,8.5-18.9,18.9s8.5,18.9,18.9,18.9S47.4,39,47.4,28.6S39,9.7,28.6,9.7z"/>
	<g>
		<path class="st3" d="M28.6,10.4c-0.4,0-0.8,0.4-0.8,0.8V12c0,0.4,0.4,0.8,0.8,0.8s0.8-0.4,0.8-0.8v-0.8
			C29.4,10.8,29,10.4,28.6,10.4z"/>
		<path class="st3" d="M28.6,44.2c-0.4,0-0.8,0.4-0.8,0.8v0.8c0,0.4,0.4,0.8,0.8,0.8s0.8-0.4,0.8-0.8V45
			C29.4,44.6,29,44.2,28.6,44.2z"/>
		<path class="st3" d="M45.9,27.7h-0.8c-0.4,0-0.8,0.4-0.8,0.8c0,0.4,0.4,0.8,0.8,0.8h0.8c0.4,0,0.8-0.4,0.8-0.8
			C46.7,28,46.3,27.7,45.9,27.7z"/>
		<path class="st3" d="M12.1,27.7h-0.8c-0.4,0-0.8,0.4-0.8,0.8c0,0.4,0.4,0.8,0.8,0.8h0.8c0.4,0,0.8-0.4,0.8-0.8
			C12.9,28,12.5,27.7,12.1,27.7z"/>
		<path class="st3" d="M40.2,15.7l-0.6,0.6c-0.3,0.3-0.3,0.8,0,1.1c0.2,0.2,0.4,0.2,0.6,0.2c0.2,0,0.4-0.1,0.6-0.2l0.6-0.6
			c0.3-0.3,0.3-0.8,0-1.1C41.1,15.4,40.6,15.4,40.2,15.7z"/>
		<path class="st3" d="M16.4,39.6l-0.6,0.6c-0.3,0.3-0.3,0.8,0,1.1c0.2,0.2,0.4,0.2,0.6,0.2c0.2,0,0.4-0.1,0.6-0.2l0.6-0.6
			c0.3-0.3,0.3-0.8,0-1.1C17.2,39.3,16.7,39.3,16.4,39.6z"/>
		<path class="st3" d="M40.8,39.6c-0.3-0.3-0.8-0.3-1.1,0c-0.3,0.3-0.3,0.8,0,1.1l0.6,0.6c0.2,0.2,0.4,0.2,0.6,0.2
			c0.2,0,0.4-0.1,0.6-0.2c0.3-0.3,0.3-0.8,0-1.1L40.8,39.6z"/>
		<path class="st3" d="M16.9,15.7c-0.3-0.3-0.8-0.3-1.1,0c-0.3,0.3-0.3,0.8,0,1.1l0.6,0.6c0.2,0.2,0.4,0.2,0.6,0.2
			c0.2,0,0.4-0.1,0.6-0.2c0.3-0.3,0.3-0.8,0-1.1L16.9,15.7z"/>
	</g>
	<path class="st4" d="M37.2,29.4h-6.3c-0.4,0-0.8-0.4-0.8-0.8s0.4-0.8,0.8-0.8h6.3c0.4,0,0.8,0.4,0.8,0.8S37.7,29.4,37.2,29.4z"/>
	<path class="st4" d="M28.6,27c-0.4,0-0.8-0.4-0.8-0.8v-8.6c0-0.4,0.4-0.8,0.8-0.8s0.8,0.4,0.8,0.8v8.6C29.4,26.7,29,27,28.6,27z"/>
	<path class="st4" d="M28.6,31.7c-1.7,0-3.1-1.4-3.1-3.1s1.4-3.1,3.1-3.1s3.1,1.4,3.1,3.1S30.3,31.7,28.6,31.7z M28.6,27
		c-0.9,0-1.6,0.7-1.6,1.6s0.7,1.6,1.6,1.6s1.6-0.7,1.6-1.6S29.4,27,28.6,27z"/>
</g>
</svg>
