<svg id="Layer_1" data-name="Layer 1" xmlns="http://www.w3.org/2000/svg" viewBox="0 0 1080 1377.03"><defs><style>.cls-1{font-size:200px;fill:#cecece;font-family:Ubuntu;}.cls-2{letter-spacing:-4px;}.cls-3{letter-spacing:-2px;}.cls-4{font-size:120px;}.cls-5{fill:none;}.cls-6{fill:#2095bf;}.cls-7{fill:#f4f4f4;}</style></defs><title>welcome-4</title><text class="cls-1" transform="translate(92.3 316.32)"><tspan class="cls-2">W</tspan><tspan x="181.4" y="0">el</tspan><tspan class="cls-3" x="347.8" y="0">c</tspan><tspan x="438.2" y="0">ome!</tspan><tspan class="cls-4"><tspan class="cls-2" x="123.64" y="585.6">T</tspan><tspan x="185.32" y="585.6">ap the plus </tspan><tspan x="87.1" y="729.6">button to get </tspan><tspan x="238.3" y="873.6">started!</tspan></tspan></text><path class="cls-5" d="M0,46.53V608.38l18.48-11.45,5.34,8.61,24.3-15.06s18.37,20.21,19.4,48.3a64.75,64.75,0,0,1-.58,11.32c-1.68,12.35-7.08,25.77-18.79,39.42a0.06,0.06,0,0,1,0,0l-1.38,1.55c-3,4.07-9,16,4.05,37.17,0,0,26.43-9.36,42.34,3.91l12.17-7.54,6.11,9.86,13.86-8.59,0.11,0.18,0,0,0,0,2.66,4.29a778.51,778.51,0,0,1-68.86,48C39.41,790.78,19.58,801.78,0,811.65v593.19H1080V46.53H0Zm89.49,86-6,40.62L54.9,143.73,14.42,150.6l19.18-36.3-19-36.38,40.45,7L83.74,55.59l5.82,40.64,36.78,18.24ZM986,87.81l24.46,4.25,17.36-17.74,3.52,24.58,22.24,11-22.28,10.94-3.62,24.56-17.29-17.81-24.48,4.15,11.6-22ZM136.4,1189.94l-7.24,16.15-8.41-15.57-17.59-1.89,12.2-12.81-3.63-17.32,16,7.65,15.35-8.81-2.34,17.54,13.12,11.87Zm73.69-586.66,0.05-.05ZM243.94,389.5l-8.48-1.77-6.27,6-0.93-8.61L220.63,381l7.9-3.55,1.56-8.52,5.82,6.42,8.59-1.15-4.31,7.52ZM446.82,799.13l-9.56-2-7.07,6.74-1.05-9.71-8.6-4.64,8.91-4,1.75-9.61,6.56,7.24,9.68-1.3-4.86,8.48ZM630.51,599.82a4.19,4.19,0,0,1-4.19,4.19H510.09V720.24a4.19,4.19,0,0,1-4.19,4.19h0a4.19,4.19,0,0,1-4.19-4.19V604H385.49a4.19,4.19,0,0,1-4.19-4.19h0a4.19,4.19,0,0,1,4.19-4.19H501.72V479.41a4.19,4.19,0,0,1,4.19-4.19h0a4.19,4.19,0,0,1,4.19,4.19V595.64H626.32a4.19,4.19,0,0,1,4.19,4.19h0Zm74-113.74-8.91-1.86L689,490.5l-1-9.05-8-4.32,8.31-3.73,1.63-9,6.11,6.75,9-1.21-4.53,7.9ZM714.07,154l-2.83,19.19-13.51-13.91-19.12,3.24,9.06-17.15-9-17.18,19.11,3.32,13.56-13.86,2.75,19.2,17.37,8.62Zm28.28,7.56-0.05,0,0.05,0,0,0h0ZM862.47,1366.33l-22.7-15.15-25.35,10.11,7.4-26.27-17.44-21,27.27-1.08,14.57-23.08,9.45,25.6,26.45,6.72-21.42,16.9Zm93.68-698.87a39.13,39.13,0,0,1-5.77,3.68c-6.67,3.5-15.17,5.54-26,4.56h0l-1.25-.13c-3.07-.08-11.06,1.16-16.88,15,0,0,13.87,9.73,12.91,22.22l8,3.35-2.71,6.46,9.08,3.82,0,0.12v0h0l-1.18,2.81a466.06,466.06,0,0,1-93.4-39.22l1.19-2.84,0.06-.14,9.09,3.82,2.71-6.46,8,3.35c8.25-9.42,24.9-6.33,24.9-6.33,5.82-13.86,1.11-20.43-1.09-22.57l-1-.8,0,0c-8.28-7-12.77-14.54-14.94-21.75a39.07,39.07,0,0,1-1.41-6.7c-2-16.87,7-30.66,7-30.66l15.93,6.69,2.37-5.64,34,14.26,34,14.26-2.37,5.64L973.13,641S969.62,657.11,956.15,667.46Zm-89.86,2.46,0,0,0,0,0,0ZM996.11,1146.8l-12.24,13.93-3.61-18.19-17-7.34,16.18-9.05,1.72-18.46,13.61,12.59,18.09-4.07-7.77,16.83,9.46,15.94Zm82.14-645.19h-3.82L1056,528.25l-9.94-30.85-31-9.3,26.27-19-0.75-32.4,26.18,19.12,11.55-4v49.83Z" transform="translate(0 -27.81)"/><path class="cls-5" d="M18.06,748.57c-6.28-10.13-12.61-15.39-18.06-18V789.9l2.7-1.67C-2.09,768.06,18.06,748.57,18.06,748.57Z" transform="translate(0 -27.81)"/><path class="cls-5" d="M48.27,664.42s18-16.81-7.36-59.08l-15.12,9.37S49.05,649.85,48.27,664.42Z" transform="translate(0 -27.81)"/><path class="cls-5" d="M880.25,643.22c-1.84-8.62,8.72-31.8,8.72-31.8l-9.91-4.16C867.94,634.88,880.25,643.22,880.25,643.22Z" transform="translate(0 -27.81)"/><path class="cls-5" d="M953.38,638.47s-9.15,23.76-16.6,28.49c0,0,14.57,3,26.51-24.32Z" transform="translate(0 -27.81)"/><path class="cls-6" d="M505.9,727.43a7.2,7.2,0,0,1-7.19-7.19V607H385.49a7.19,7.19,0,0,1,0-14.37H498.72V479.41a7.19,7.19,0,0,1,14.37,0V592.64H626.32a7.19,7.19,0,1,1,0,14.37H513.09V720.24A7.2,7.2,0,0,1,505.9,727.43Z" transform="translate(0 -27.81)"/><path class="cls-6" d="M505.9,475.22a4.19,4.19,0,0,1,4.19,4.19V595.64H626.32a4.19,4.19,0,0,1,4.19,4.19h0a4.19,4.19,0,0,1-4.19,4.19H510.09V720.24a4.19,4.19,0,0,1-4.19,4.19h0a4.19,4.19,0,0,1-4.19-4.19V604H385.49a4.19,4.19,0,0,1-4.19-4.19h0a4.19,4.19,0,0,1,4.19-4.19H501.72V479.41a4.19,4.19,0,0,1,4.19-4.19h0m0-6a10.2,10.2,0,0,0-10.19,10.19V589.64H385.49a10.19,10.19,0,1,0,0,20.37H495.72V720.24a10.19,10.19,0,0,0,20.37,0V610H626.32a10.19,10.19,0,0,0,0-20.37H516.09V479.41a10.2,10.2,0,0,0-10.19-10.19h0Z" transform="translate(0 -27.81)"/><polygon class="cls-7" points="1012.83 1088.4 994.74 1092.47 981.13 1079.88 979.41 1098.34 963.24 1107.39 980.26 1114.72 983.87 1132.91 996.11 1118.98 1014.52 1121.17 1005.06 1105.23 1012.83 1088.4"/><polygon class="cls-7" points="855.67 1287.66 846.21 1262.06 831.65 1285.14 804.38 1286.22 821.82 1307.2 814.43 1333.47 839.77 1323.37 862.47 1338.52 860.69 1311.29 882.12 1294.38 855.67 1287.66"/><polygon class="cls-7" points="1040.53 408.9 1041.27 441.3 1015 460.29 1046.05 469.59 1055.99 500.44 1074.43 473.79 1078.25 473.8 1078.25 423.96 1066.7 428.01 1040.53 408.9"/><polygon class="cls-7" points="143.02 1129.53 127.68 1138.34 111.72 1130.69 115.36 1148.01 103.15 1160.82 120.75 1162.71 129.16 1178.28 136.4 1162.13 153.8 1158.94 140.68 1147.07 143.02 1129.53"/><polygon class="cls-7" points="696.03 443.37 689.91 436.63 688.28 445.58 679.97 449.31 687.98 453.64 688.97 462.69 695.55 456.4 704.47 458.27 700.52 450.06 705.05 442.16 696.03 443.37"/><polygon class="cls-7" points="437.77 755.34 431.21 748.1 429.45 757.71 420.55 761.72 429.14 766.35 430.19 776.07 437.26 769.32 446.82 771.32 442.6 762.52 447.45 754.04 437.77 755.34"/><polygon class="cls-7" points="711.36 89.83 697.79 103.69 678.69 100.38 687.68 117.56 678.62 134.71 697.74 131.47 711.25 145.38 714.07 126.19 731.48 117.65 714.11 109.03 711.36 89.83"/><path class="cls-7" d="M866.31,669.87l0,0Z" transform="translate(0 -27.81)"/><path class="cls-7" d="M957.2,634.29l2.37-5.64-34-14.26-34-14.26-2.37,5.64-15.93-6.69s-9.06,13.8-7,30.66a39.07,39.07,0,0,0,1.41,6.7c2.17,7.22,6.66,14.71,14.94,21.75l0,0,1,0.8c2.21,2.14,6.92,8.71,1.09,22.57,0,0-16.66-3.09-24.9,6.33l-8-3.35L849.18,691l-9.09-3.82-0.06.14-1.19,2.84a466.06,466.06,0,0,0,93.4,39.22l1.18-2.81h0v0l0-.12-9.08-3.82,2.71-6.46-8-3.35c1-12.48-12.91-22.22-12.91-22.22,5.82-13.86,13.81-15.09,16.88-15l1.25,0.13h0c10.82,1,19.32-1.06,26-4.56a39.13,39.13,0,0,0,5.77-3.68c13.47-10.35,17-26.48,17-26.48Zm-77,8.93s-12.31-8.34-1.19-36l9.91,4.16S878.4,634.6,880.25,643.22ZM936.78,667c7.45-4.72,16.6-28.49,16.6-28.49l9.91,4.16C951.36,669.91,936.78,667,936.78,667Z" transform="translate(0 -27.81)"/><path class="cls-7" d="M866.31,669.87l0,0Z" transform="translate(0 -27.81)"/><polygon class="cls-7" points="116.51 0 87.79 29.34 47.34 22.32 66.37 58.7 47.19 95.01 87.67 88.15 116.28 117.61 122.26 76.99 159.12 58.89 122.33 40.64 116.51 0"/><path class="cls-7" d="M128.1,730.46l-2.66-4.29,0,0,0,0-0.11-.18-13.86,8.59-6.11-9.86-12.17,7.54c-15.92-13.26-42.34-3.91-42.34-3.91-13.1-21.15-7.1-33.1-4.05-37.17l1.38-1.55a0.06,0.06,0,0,0,0,0c11.71-13.65,17.11-27.07,18.79-39.42a64.75,64.75,0,0,0,.58-11.32c-1-28.1-19.4-48.3-19.4-48.3l-24.3,15.06-5.34-8.61L0,608.38V730.54c5.45,2.64,11.78,7.9,18.06,18,0,0-20.15,19.5-15.36,39.66L0,789.9v21.75c19.58-9.87,39.41-20.87,59.24-33.16A778.51,778.51,0,0,0,128.1,730.46ZM40.91,605.34c25.33,42.27,7.36,59.08,7.36,59.08,0.78-14.57-22.48-49.71-22.48-49.71Z" transform="translate(0 -27.81)"/><path class="cls-7" d="M210.14,603.23l-0.05.05Z" transform="translate(0 -27.81)"/><path class="cls-7" d="M742.35,161.57l0,0h0Z" transform="translate(0 -27.81)"/><path class="cls-7" d="M742.35,161.57l-0.05,0Z" transform="translate(0 -27.81)"/><polygon class="cls-7" points="235.91 347.52 230.09 341.1 228.54 349.62 220.63 353.17 228.26 357.28 229.19 365.9 235.46 359.92 243.94 361.69 240.19 353.88 244.5 346.36 235.91 347.52"/><polygon class="cls-7" points="1010.42 99.8 1027.72 117.61 1031.34 93.05 1053.62 82.1 1031.38 71.07 1027.86 46.5 1010.49 64.24 986.03 59.99 997.54 81.99 985.95 103.94 1010.42 99.8"/></svg>